<svg width="65" height="64" viewBox="0 0 65 64" fill="none" xmlns="http://www.w3.org/2000/svg">
<g>
<path d="M11.6734 12.6764C11.8416 11.305 11.9597 10.2719 12.0969 9.24138C12.2983 7.72941 13.2359 6.75209 14.5172 6.08496C16.9952 4.7947 19.5802 4.66726 22.2326 5.48093C23.8081 5.96424 24.6339 7.17107 25.225 8.59151C25.3911 8.99048 25.472 9.42489 25.6381 10.0036C27.3534 9.59389 29.039 9.19141 30.7291 8.78771C31.6276 3.18142 32.7123 2.05757 36.9848 1.40083C40.2829 0.893983 43.0588 1.78787 44.7123 6.65567C46.0421 6.39957 47.3886 6.14592 48.7325 5.8799C50.349 5.55993 50.5325 5.594 51.1795 7.03019C53.1538 11.413 54.941 15.8557 55.9595 20.5886C56.7135 24.0917 57.5909 27.5759 58.6036 31.0125C59.1769 32.9575 60.1101 34.8002 60.9372 36.6641C61.1279 37.0939 61.548 37.4219 61.8939 37.8344C61.9009 37.8863 61.9636 38.0189 61.9228 38.0989C61.0277 39.8541 61.5917 41.3968 62.5728 42.9029C63.1438 43.7796 63.6355 44.7078 64.2053 45.5854C64.5427 46.105 64.6456 46.5416 64.2195 47.079C62.4282 49.3388 60.5228 51.4782 58.1107 53.1053C57.9345 53.2242 57.6954 53.394 57.5265 53.3562C56.3863 53.1017 55.4955 53.7922 54.5301 54.1337C48.218 56.3669 41.679 57.756 35.1998 59.3636C32.0418 60.1472 28.8718 60.9036 25.6757 61.5045C22.913 62.0241 20.1048 62.2999 17.3186 62.6965C16.2397 62.8501 15.4702 62.3485 14.9689 61.4917C14.301 60.3506 13.6551 59.1812 13.153 57.9609C10.5269 51.5798 7.90728 45.1954 5.37062 38.7785C3.82824 34.8767 2.53233 30.8761 0.936473 26.9975C0.303569 25.4594 0.289817 24.4544 1.35943 23.0206C3.0922 20.6977 4.81671 18.2836 5.664 15.4217C5.88205 14.6852 6.45765 14.4498 7.12219 14.2372C8.69451 13.7344 10.247 13.1696 11.6734 12.6764ZM15.0214 57.3335C15.6349 55.4568 16.1263 53.5274 16.9048 51.7217C17.4238 50.5183 17.4091 49.5674 16.5158 48.3848C16.0508 49.6456 15.7211 50.8035 15.2077 51.8731C14.3364 53.6881 13.9486 55.4704 15.0191 57.3295C15.3999 58.0392 15.7807 58.7488 16.2527 59.6286C16.8761 58.0812 17.281 56.6956 17.9679 55.468C18.8162 53.9519 18.5757 52.6622 17.5825 51.2262C17.0078 52.8217 16.4959 54.331 15.9141 55.8127C15.7003 56.3576 15.3211 56.8375 15.0214 57.3335ZM14.5184 44.7708C14.583 43.5938 14.2094 42.5872 13.3363 41.5914C12.6751 43.264 12.1095 44.8036 11.4599 46.3069C10.8504 47.7173 11.5404 48.7358 12.1759 49.7685C12.9991 48.0303 13.7845 46.3717 14.57 44.713C14.0913 46.1756 13.7474 47.7015 13.0995 49.085C12.2922 50.8087 12.8888 52.1609 13.8031 53.7914C14.3074 52.5527 14.7273 51.5436 15.1288 50.5271C15.4525 49.7081 15.7848 48.8905 16.0568 48.0537C16.3687 47.0937 15.572 45.4457 14.5184 44.7708ZM7.36056 20.0046C7.08933 20.6624 6.85096 21.3362 6.54078 21.9751C5.62672 23.8585 4.707 25.74 3.74313 27.5982C3.2832 28.4847 3.29756 29.2506 4.04048 30.0283C5.16953 27.8506 6.22417 25.6856 7.40808 23.5937C7.92073 22.6879 8.06757 21.8823 7.63208 20.9475C7.49594 20.6553 7.44903 20.3216 7.36117 20.007C7.09865 19.3787 6.83614 18.7502 6.50991 17.9696C4.91145 20.5056 3.44945 22.8253 1.95612 25.1948C2.28678 25.9695 2.62814 26.7694 3.04727 27.7519C3.8261 26.214 4.47964 24.8241 5.22363 23.4843C5.88373 22.2952 6.64407 21.162 7.36056 20.0046ZM10.0515 26.202C10.5243 28.0777 10.892 29.7961 11.3965 31.4734C12.03 33.5798 12.6718 35.6942 13.4926 37.7315C15.7602 43.3597 18.13 48.9465 20.4422 54.557C20.9209 55.7187 21.1336 55.871 22.3762 55.6142C24.1053 55.2568 25.8337 54.8954 27.5621 54.535C31.8299 53.645 36.0769 52.6333 40.3709 51.8964C45.2977 51.0506 50.0212 49.6066 54.6213 47.7009C54.9743 47.5547 55.3703 47.3985 55.6164 47.1285C56.5819 46.0688 57.5979 45.0316 58.4035 43.855C59.5311 42.2081 59.972 40.2804 60.3945 38.4894C58.2623 37.4776 56.366 36.5777 54.3279 35.6106C54.4765 36.3667 54.6297 36.9512 54.7008 37.5454C54.9098 39.2948 55.2017 41.0452 55.248 42.8007C55.3155 45.3623 52.9474 47.6644 50.3022 47.7842C50.2605 47.786 50.2122 47.6404 50.1227 47.4884C50.4891 47.2657 50.8323 46.9823 51.2262 46.8301C53.4246 45.9805 54.155 44.3061 53.9629 42.0876C53.9106 41.4833 53.9129 40.8702 53.8089 40.2754C53.5144 38.5918 53.1451 36.9209 52.8809 35.2331C52.8143 34.8071 52.8879 34.1172 53.1543 33.944C53.4681 33.7399 54.0812 33.8976 54.5275 34.0264C54.8835 34.1292 55.1749 34.4402 55.5108 34.6307C56.586 35.241 57.6688 35.8383 58.8955 36.5226C58.1066 34.5041 57.2477 32.7673 56.7486 30.9328C55.7203 27.1529 54.8947 23.3182 53.9623 19.5118C53.6672 18.3068 53.2979 17.12 52.9903 16.0233C50.3447 16.7759 47.9336 17.5868 45.4644 18.1376C40.671 19.2071 35.8351 20.0842 31.0353 21.1263C25.3708 22.356 19.7216 23.6571 14.0759 24.9712C12.7473 25.2802 11.4593 25.7661 10.0515 26.202ZM25.6335 11.3069C25.2154 12.9331 24.8475 14.3636 24.4453 15.9278C25.0243 17.0246 25.0082 17.751 23.9974 18.4976C23.3673 18.9631 22.5282 19.3176 21.7568 19.3758C20.7892 19.4488 19.7798 19.236 18.8158 19.0225C17.5044 18.7322 16.8992 18.0528 16.7892 16.9378C16.6708 15.7383 16.9644 14.6924 18.1806 14.2204C19.2915 13.7894 19.3639 12.9777 19.3179 11.733C15.3994 13.0889 11.6576 14.37 7.9276 15.685C7.09728 15.9778 6.97213 16.4235 7.31808 17.4288C7.83867 18.9411 8.40343 20.4388 8.89407 21.9606C9.2281 22.9967 9.46754 24.0634 9.77742 25.2218C10.8547 24.8773 11.8237 24.4954 12.8272 24.2598C15.7271 23.5787 18.6407 22.957 21.5488 22.3111C29.3015 20.5893 37.0526 18.8602 44.8078 17.1492C47.448 16.5667 50.0334 15.8254 52.6488 14.701C51.6296 12.1581 50.6335 9.67228 49.608 7.11377C47.8514 7.44397 46.2942 7.73659 45.0753 7.96579C44.3665 9.57036 43.7738 10.9175 43.1756 12.2623C43.0206 12.6106 42.7752 12.9352 42.6959 13.298C42.12 15.9344 40.2502 17.1453 37.7684 16.4562C35.5075 15.8285 34.8405 13.8193 36.3194 12.0048C36.9406 11.2425 37.381 10.4233 37.6353 9.477C33.5536 10.0994 29.6054 10.7012 25.6335 11.3069ZM32.5406 8.63399C32.7325 8.63399 32.9478 8.67387 33.1423 8.62727C34.2076 8.37209 35.2769 8.12638 36.3275 7.81803C37.4235 7.49638 38.3065 7.60915 38.737 8.27613C39.2424 9.05924 39.1382 9.82218 38.6144 10.5906C38.277 11.0855 38.0159 11.6419 37.7859 12.1978C37.5897 12.6718 37.7234 13.1497 38.2806 13.2034C39.3633 13.3076 40.4649 13.4967 41.416 12.6363C43.2102 11.0134 43.9636 7.9939 43.0584 5.80243C42.07 3.40955 40.2416 2.35018 37.3595 2.50038C33.9717 2.67672 32.0313 5.10214 32.5406 8.63399ZM14.4545 11.8691C15.1201 10.9165 15.5246 10.1113 16.1364 9.521C16.8601 8.82285 17.7893 8.38233 18.8632 8.78251C19.912 9.17338 20.3664 10.0165 20.529 11.0655C20.757 12.5359 20.6885 13.9116 19.5465 15.0698C19.297 15.323 19.1031 15.9278 19.2377 16.1862C19.3978 16.4936 19.9234 16.7011 20.3215 16.7675C20.672 16.8258 21.0826 16.6761 21.4363 16.5395C23.6599 15.6812 26.0062 11.3352 24.0917 8.52046C23.4258 7.54146 22.7435 6.61075 21.4935 6.35985C19.9063 6.04141 18.307 5.96562 16.7233 6.34243C13.8557 7.02484 12.414 9.21036 13.0008 12.0317C13.5281 11.9727 14.0643 11.9128 14.4545 11.8691ZM26.6545 59.6245C28.2093 59.621 29.3398 59.2119 29.801 57.6923C29.8794 57.4339 30.0895 57.2154 30.2388 56.9786C30.3081 57.0151 30.3775 57.0517 30.4469 57.0883C30.2449 57.6238 30.043 58.1596 29.7778 58.8629C30.8029 58.6997 31.7889 58.7775 32.3077 57.9779C33.081 56.786 33.6802 55.4809 34.3809 54.1725C34.0993 54.1381 33.9279 54.0738 33.7761 54.1051C30.4318 54.7961 27.0885 55.4919 23.7493 56.2069C23.4394 56.2732 22.9955 56.4002 22.8913 56.6268C22.2913 57.9307 21.4536 59.1459 21.1298 60.592C22.6574 60.7113 23.5589 60.1356 24.0011 58.7914C24.1593 58.3105 24.511 57.8932 24.7744 57.447C24.8258 57.4758 24.8773 57.5045 24.9286 57.5332C24.5986 58.3472 24.2684 59.1612 23.9253 60.0071C25.3432 60.2529 26.1458 59.8835 26.528 58.6284C26.7106 58.0288 27.1586 57.5102 27.4864 56.9547C27.564 56.99 27.6418 57.0255 27.7194 57.0608C27.3763 57.887 27.0333 58.7126 26.6545 59.6245ZM62.3827 46.4808C62.0615 46.5132 61.7981 46.5327 61.5365 46.5673C58.1926 47.009 55.3025 48.714 52.2361 49.9258C51.947 50.0401 51.6327 50.2681 51.4846 50.5306C50.9318 51.5103 50.4433 52.5262 49.792 53.7998C51.8105 53.3176 51.9962 51.443 53.497 50.4148C52.9804 51.4571 52.6199 52.184 52.1721 53.0875C54.1881 52.6579 54.2486 50.6455 55.8865 49.6468C55.3218 50.6892 54.9231 51.425 54.5017 52.2029C55.6139 52.0043 55.5914 51.9876 55.9991 51.4395C56.5712 50.6706 57.1806 49.9294 57.7739 49.1762C57.8676 49.2425 57.9613 49.3087 58.0549 49.375C57.5794 50.1211 57.1039 50.8673 56.5764 51.6945C58.0804 51.6122 61.1757 48.7769 62.3827 46.4808ZM10.6609 34.1482C10.557 34.1364 10.453 34.1246 10.349 34.1127C9.7629 35.5776 9.27409 37.0917 8.56601 38.4952C7.67884 40.2537 8.40832 41.6116 9.3236 43.0777C10.0668 41.3305 10.7942 39.6866 11.4546 38.0163C11.6 37.6484 11.606 37.162 11.507 36.7732C11.2805 35.884 10.9494 35.0214 10.6609 34.1482ZM42.6707 52.7012C41.0755 52.9434 39.8324 53.106 38.6025 53.3382C38.3188 53.3918 37.9772 53.6262 37.8382 53.8756C37.2323 54.9611 36.6914 56.083 36.1143 57.2166C38.0579 57.7452 38.178 55.7632 39.4007 54.8968C39.1057 55.6394 38.9188 56.1099 38.6103 56.8864C39.4064 56.5561 40.1119 56.4797 40.4306 56.0883C41.2139 55.1266 41.8191 54.02 42.6707 52.7012ZM8.06146 23.1116C6.81261 25.7326 5.65132 28.148 4.51264 30.574C4.18809 31.2654 4.51539 31.7736 5.08656 32.2912C6.15709 30.3067 7.10232 28.3764 8.21823 26.5501C8.93197 25.3821 8.64699 24.4097 8.06146 23.1116ZM11.9435 38.1258C11.3303 39.7572 10.8056 41.2548 10.2045 42.7211C9.681 43.9981 9.80584 45.1274 10.7981 46.2733C11.3878 44.891 11.8063 43.5024 12.5352 42.302C13.4877 40.7335 12.9274 39.5387 11.9435 38.1258ZM6.43656 36.0771C7.42519 34.1285 8.25521 32.2615 9.2967 30.5211C9.98706 29.3678 9.68665 28.4944 9.09394 27.4889C8.15574 29.2009 7.32893 30.8831 6.33801 32.4623C5.57217 33.6826 5.51364 34.7806 6.43656 36.0771ZM9.86513 30.2731C8.82821 32.5619 7.96962 34.5114 7.06168 36.4375C6.61779 37.3792 7.00285 38.0758 7.56974 38.9927C8.35728 37.2112 8.97857 35.5845 9.78445 34.0553C10.3906 32.9047 10.453 31.829 9.86513 30.2731ZM35.115 53.8357C34.4569 55.201 33.8087 56.546 32.9981 58.2277C33.9809 57.8981 34.8913 57.8757 35.2274 57.4249C36.0808 56.2803 36.6768 54.9437 37.4822 53.4924C36.5386 53.6291 35.8455 53.7297 35.115 53.8357ZM60.8413 42.4618C59.8202 43.9388 58.9419 45.2096 57.9738 46.6102C59.4949 46.2808 60.8889 45.9788 62.4102 45.6492C61.8607 44.5333 61.3826 43.5618 60.8413 42.4618ZM49.0026 51.1982C46.3029 51.3935 45.6991 53.6064 44.1517 55.1437C46.1159 55.1691 47.3284 54.5829 47.9338 52.9535C48.1407 52.3965 48.5559 51.917 49.0026 51.1982ZM45.8551 52.193C43.4538 52.1895 42.4281 53.0829 41.4 56.1187C42.1529 55.8286 42.961 55.7451 43.4034 55.299C44.3115 54.3832 45.0235 53.2733 45.8551 52.193ZM18.3309 61.0066C19.1295 61.073 19.8619 61.2151 20.2448 60.5425C20.9301 59.3387 21.5072 58.0734 22.1548 56.7834C20.7418 56.6328 20.7234 56.6224 20.3627 57.2689C19.7016 58.4543 19.0647 59.6532 18.3309 61.0066ZM16.7303 60.0291C16.8492 60.0752 16.968 60.1212 17.0867 60.1674C17.8041 58.9385 18.5476 57.7241 19.23 56.4763C19.7092 55.6003 19.6721 55.58 18.8019 54.4663C18.0943 56.3672 17.4123 58.1982 16.7303 60.0291ZM51.1267 50.35C48.7464 50.9241 48.8381 52.9661 47.9628 54.3087C48.5261 54.1673 49.0612 53.9552 49.3243 53.5613C49.9335 52.6495 50.411 51.6498 51.1267 50.35ZM19.2529 10.8352C18.0782 9.36331 17.0272 9.6573 15.8381 11.6789C17.0028 11.3911 18.0486 11.1328 19.2529 10.8352Z" fill="#FCFCFC"/>
<path d="M34.198 29.4818C33.7309 30.5676 33.3732 31.4297 32.9879 32.2792C32.83 32.6275 32.6895 33.0772 32.4023 33.2501C32.0316 33.4732 31.4702 33.6244 31.0897 33.5012C30.8331 33.4181 30.6835 32.8197 30.609 32.4284C30.5639 32.1915 30.7441 31.9066 30.8389 31.6491C31.562 29.6847 32.2709 27.7146 33.0217 25.7609C33.4674 24.601 34.3989 24.1088 35.1542 24.6983C35.5821 25.0322 35.8948 25.6532 36.029 26.2011C36.9058 29.7835 37.7767 33.3693 38.5343 36.9782C39.065 39.506 39.4157 42.0715 39.8383 44.6216C39.9013 45.0012 39.9456 45.3881 39.9505 45.7721C39.9626 46.7164 39.6564 47.1562 38.9524 47.1881C38.1751 47.2234 37.6947 46.8252 37.5642 46.0641C37.341 44.7633 37.1854 43.4501 36.9334 42.1553C36.1557 38.1584 35.3469 34.1677 34.543 30.1761C34.5137 30.03 34.4089 29.8992 34.198 29.4818Z" fill="#FCFCFC"/>
</g>
</svg>
