<svg width="65" height="64" viewBox="0 0 65 64" fill="none" xmlns="http://www.w3.org/2000/svg">
<g clip-path="url(#clip0_215_200)">
<path d="M20.2472 4.47069C25.0481 4.47069 29.8521 4.58143 34.6489 4.44166C40.2046 4.27973 45.7538 3.89512 51.3063 3.61437C51.8566 3.58653 52.4121 3.57186 52.9606 3.61257C55.1532 3.77509 57.3421 3.9888 59.5358 4.13157C61.4754 4.25788 62.0588 4.72106 62.2261 6.70473C62.5503 10.5467 62.7911 14.3955 63.0916 18.2396C63.3876 22.0259 63.7463 25.8074 64.0172 29.5953C64.2057 32.2328 64.3678 34.8761 64.4088 37.519C64.4895 42.7039 64.5125 47.8904 64.4934 53.0759C64.4765 57.6468 62.6136 58.8225 58.3803 59.0889C56.4005 59.2134 54.4109 59.1795 52.4258 59.2191C46.8587 59.3295 41.2902 59.4004 35.7247 59.564C31.0429 59.7015 26.3649 59.9696 21.6837 60.1354C19.4321 60.2152 17.1767 60.1724 14.9237 60.222C12.8855 60.2669 10.8466 60.451 8.81178 60.4052C7.33648 60.372 5.86508 60.0802 4.39637 59.8723C3.26603 59.7123 2.608 59.0327 2.51282 57.8951C2.26993 54.9886 1.96449 52.0831 1.8512 49.1708C1.57254 42.01 1.39895 34.8453 1.16219 27.6827C0.958214 21.5141 0.724753 15.3462 0.506706 9.17807C0.495033 8.84733 0.499972 8.51585 0.507604 8.18481C0.576445 5.16254 1.44474 4.27868 4.52732 4.26177C9.76672 4.23304 15.0064 4.25384 20.246 4.25384C20.2466 4.32612 20.2469 4.3984 20.2472 4.47069ZM31.5043 55.0485C31.5709 55.131 31.6375 55.2134 31.7043 55.2957C31.0509 56.0765 30.3975 56.8572 29.6332 57.7706C31.1773 58.0518 32.3808 57.9489 33.3582 56.7988C33.926 56.1308 34.6138 55.5768 35.527 55.3221C34.8763 56.0868 34.2256 56.8517 33.507 57.6963C35.0754 57.8969 36.4145 57.975 37.5706 56.7463C37.5706 57.2345 37.5706 57.4795 37.5706 57.7704C37.9025 57.7704 38.1768 57.778 38.4505 57.7692C45.1158 57.5564 51.7811 57.3457 58.4461 57.1205C58.9906 57.102 59.546 57.0377 60.0714 56.8996C61.6015 56.4973 62.1257 55.931 62.1983 54.3756C62.3241 51.6795 62.4469 48.9781 62.4163 46.2807C62.3628 41.5419 62.2991 36.7984 62.0407 32.0679C61.7885 27.4534 61.2553 22.8551 60.9054 18.2452C60.6263 14.5682 60.444 10.8837 60.1995 7.20383C60.1718 6.78704 60.0186 6.37863 59.9117 5.91575C57.8781 5.79693 55.9544 5.55703 54.0364 5.59684C48.5836 5.70998 43.1343 6.02874 37.6815 6.09743C30.125 6.19276 22.5664 6.13619 15.0088 6.14008C11.422 6.14188 7.83513 6.1124 4.24851 6.13978C2.91809 6.14996 2.69331 6.35708 2.6074 7.66147C2.50235 9.25604 2.49397 10.8576 2.47242 12.4565C2.46808 12.7843 2.59049 13.1135 2.68882 13.6182C3.85343 11.8892 4.88425 10.3588 5.91522 8.82833C6.00725 8.8822 6.09929 8.93623 6.19133 8.99025C6.03718 9.30842 5.90938 9.6423 5.72545 9.9416C4.91687 11.2571 4.15588 12.6083 3.25451 13.8578C2.43934 14.9878 2.5429 16.1412 2.696 17.6231C4.06878 15.6288 5.27903 13.8705 6.48944 12.1123C6.58552 12.1782 6.68145 12.2439 6.77752 12.3097C5.63686 14.1804 4.5366 16.0779 3.33233 17.9068C2.93889 18.5042 2.78714 19.0589 2.80719 19.7446C2.87139 21.9497 2.87633 24.1567 2.94577 26.3617C2.96822 27.0757 3.11907 27.7856 3.24867 28.7861C3.929 27.8744 4.37303 27.2794 4.8169 26.6845C3.37902 28.8801 2.80106 31.2012 3.50713 34.0859C4.41029 32.7976 5.17009 31.6829 5.96355 30.5929C6.46774 29.9001 6.67486 29.2006 6.62637 28.3024C6.47836 25.5609 6.97896 22.9147 8.29996 20.4803C9.66151 17.9712 11.695 16.2467 14.5628 15.8088C17.0356 15.4314 19.5118 15.5752 21.8663 16.5671C22.9176 17.0101 23.9522 17.4929 24.8463 17.8915C25.9388 16.7576 26.905 15.5502 28.0748 14.5911C29.6315 13.3148 31.5196 12.7107 33.51 12.3275C38.3594 11.3943 43.4785 13.7099 45.0005 19.5243C45.6248 21.9096 45.2233 24.2387 44.7562 26.5595C43.9089 30.7704 41.9529 34.5562 40.0222 38.3339C38.2904 41.7224 36.3479 44.9893 34.1179 48.0873C32.9241 49.7459 32.7207 49.9722 30.919 49.1903C24.5256 46.4157 18.3995 43.143 12.9692 38.736C10.3514 36.6115 7.96204 34.2105 7.03029 30.7753C7.00754 30.6916 6.86986 30.639 6.71183 30.5128C5.83769 31.8341 5.03151 33.1995 4.07581 34.4508C3.3238 35.4352 3.29447 36.4105 3.63029 37.732C4.3422 36.9197 4.93139 36.2474 5.52058 35.5752C5.26108 36.4912 4.85791 37.3212 4.28383 38.0082C3.16547 39.3466 3.42212 40.7926 3.62865 42.519C4.72247 41.233 5.64419 40.1493 6.56591 39.0655C6.66558 39.1468 6.7654 39.2282 6.86507 39.3095C6.02716 40.4451 5.20047 41.589 4.34848 42.7138C3.45684 43.891 3.29222 45.4327 3.98662 47.0384C5.14479 45.1809 6.34427 43.4364 7.76943 41.8503C6.84547 43.668 5.86912 45.474 4.55755 46.99C3.64331 48.0468 3.78099 48.9535 3.99066 50.2738C5.06757 49.0942 5.97163 48.1039 6.8757 47.1137C6.27049 48.295 5.47299 49.3113 4.60619 50.2645C3.71006 51.2498 3.75361 52.247 4.35402 53.4985C5.59915 51.827 6.7434 50.291 7.88766 48.7551C8.00035 48.838 8.11304 48.9209 8.22573 49.0038C7.19087 50.5454 6.26391 52.1754 5.09182 53.6045C3.84669 55.1227 4.16366 56.6273 4.58449 58.3145C5.45877 58.4537 6.27274 58.5549 7.07384 58.7191C7.8067 58.8692 8.29457 58.6787 8.75506 58.0404C9.68935 56.7454 10.7215 55.5202 11.7341 54.2832C11.9689 53.9963 12.2872 53.7776 12.5671 53.5277C12.6166 53.5855 12.6661 53.6434 12.7155 53.7012C11.5413 55.3264 10.367 56.9516 9.1027 58.7017C11.2571 58.9009 12.9415 58.6656 14.12 56.884C14.5477 56.2375 15.2599 55.7793 15.8424 55.2351C15.8782 55.2637 15.9139 55.2924 15.9497 55.3212C15.1805 56.3289 14.4114 57.3367 13.5347 58.4853C14.1124 58.52 14.4418 58.5115 14.7611 58.5637C16.2682 58.8101 17.3883 58.2927 18.3081 57.0524C18.9962 56.1244 19.8898 55.3487 20.6919 54.5052C20.7802 54.588 20.8685 54.6708 20.9567 54.7534C20.0333 55.9258 19.1101 57.098 18.0401 58.4566C18.7198 58.4566 19.1028 58.4066 19.4685 58.4652C21.0043 58.7116 22.0921 58.054 23.0023 56.8785C23.5467 56.1752 24.2081 55.5627 24.817 54.9093C24.9177 54.9939 25.0186 55.0784 25.1193 55.163C24.3498 56.1059 23.5801 57.0489 22.7239 58.098C24.0957 58.378 25.1177 58.2722 25.9667 57.2203C26.5847 56.4543 27.3629 55.8179 28.0698 55.1236C28.1305 55.1899 28.1913 55.2561 28.252 55.3224C27.5736 56.1898 26.8953 57.0573 26.1658 57.9898C27.6636 58.3581 28.6384 57.8892 29.4937 56.9659C30.1217 56.2876 30.8312 55.685 31.5043 55.0485ZM32.1145 47.5771C33.1911 46.0055 34.4357 44.451 35.3926 42.7358C37.2436 39.4181 39.0083 36.0467 40.6674 32.6289C42.3664 29.1283 43.4746 25.4326 43.3284 21.4862C43.2217 18.6041 41.999 16.2168 39.4562 14.7828C35.0185 12.28 28.3655 14.8715 26.8637 18.3823C26.6051 18.9869 26.2739 19.5615 25.9589 20.1407C25.3468 21.266 24.665 21.329 23.968 20.2154C22.9371 18.5678 21.4426 17.7489 19.5884 17.4498C19.1542 17.3796 18.7274 17.2513 18.2915 17.2078C14.0932 16.7875 11.0922 18.236 9.32778 22.3547C8.26748 24.8297 8.54614 27.3784 8.57427 29.9271C8.57742 30.2135 8.78574 30.4975 8.92536 30.8495C9.23694 30.5608 9.46023 30.3539 9.99943 29.8542C9.29067 31.3378 8.9526 32.4812 10.251 33.4447C10.711 32.8131 11.1663 32.1883 11.6215 31.5635C11.6917 31.6075 11.7619 31.6517 11.8321 31.6957C11.4741 32.5369 11.116 33.3781 10.7215 34.305C11.1232 34.7492 11.505 35.1712 11.9114 35.6207C12.4283 34.8933 12.8457 34.3059 13.2631 33.7185C13.3616 33.775 13.46 33.8312 13.5585 33.8877C13.2064 34.6576 12.8541 35.4277 12.4767 36.2529C12.9249 36.638 13.32 36.9776 13.7408 37.3391C14.2869 36.5211 14.759 35.8142 15.231 35.107C15.3283 35.157 15.4256 35.2069 15.523 35.2568C15.141 36.129 14.759 37.0011 14.3601 37.9119C14.9543 38.3614 15.4636 38.7469 16.0314 39.1764C16.4973 38.5401 16.8912 38.002 17.2851 37.4638C17.3455 37.4991 17.4061 37.5344 17.4666 37.5696C17.209 38.2616 16.9515 38.9535 16.6686 39.7134C17.2107 40.031 17.6593 40.2939 18.1378 40.5742C18.4863 40.1188 18.7517 39.7719 19.0172 39.425C19.0662 39.4612 19.1152 39.4976 19.1643 39.5338C19.0311 39.988 18.8977 40.4421 18.743 40.9696C19.3756 41.3208 19.9401 41.6341 20.4829 41.9355C20.9038 41.482 21.2475 41.1121 21.85 40.4632C21.5963 41.3476 21.4514 41.8532 21.2862 42.4293C21.9392 42.8192 22.534 43.1745 23.1099 43.5182C23.4142 43.1037 23.6323 42.8066 23.8504 42.5095C23.8817 42.5369 23.9131 42.5642 23.9945 42.6354C23.9517 43.0209 23.905 43.4405 23.8618 43.8292C26.289 45.3802 30.4259 47.2754 32.1145 47.5771Z" fill="#6D7971"/>
<path d="M52.9434 28.6826C51.004 28.5731 50.8002 27.2335 50.6532 25.9823C50.4931 24.6197 50.5173 23.2345 50.4826 21.8585C50.4607 20.9956 50.4786 20.1315 50.4786 19.0558C50.6783 18.921 51.0778 18.6513 51.5056 18.3626C51.5299 18.2278 51.5941 18.0671 51.5805 17.9134C51.5071 17.0925 51.4221 16.2724 51.3267 15.4538C51.1453 13.899 51.4685 13.4671 53.0059 13.2383C54.2054 13.0598 54.653 13.4694 54.8197 14.9535C54.8872 15.5544 54.9026 16.162 54.9215 16.7672C54.9431 17.4575 55.0694 18.0489 55.7849 18.4035C56.5711 18.793 56.7599 19.5925 56.7863 20.3657C56.8618 22.5667 56.874 24.7698 56.9008 26.9722C56.9101 27.7356 56.5259 28.212 55.781 28.3937C55.303 28.5102 54.8257 28.6295 54.4089 28.7325C50.8205 35.6281 47.2655 42.46 43.8216 49.078C43.9354 50.169 44.2962 51.1477 44.0476 51.9338C43.7899 52.749 43.0425 53.507 42.3305 54.0595C41.0533 55.0508 39.1621 54.6381 38.2382 53.3243C37.5269 52.3128 37.8456 50.7634 39.0538 49.8224C39.6083 49.3905 40.2609 48.9464 40.9264 48.8264C42.0151 48.6302 42.4764 47.9289 42.9285 47.0782C45.3821 42.4595 47.8452 37.846 50.3288 33.2432C51.1117 31.7914 51.9678 30.3788 52.9434 28.6826ZM54.9716 19.551C54.5842 19.5299 54.153 19.4735 53.7244 19.4891C52.4724 19.5347 52.3617 19.6658 52.2657 20.932C52.183 22.0242 52.0435 23.1132 51.9931 24.2065C51.9459 25.2283 51.983 26.2539 51.983 27.3169C53.2817 27.4832 54.398 27.6186 55.4603 27.1385C55.8407 24.2454 55.643 21.0595 54.9716 19.551ZM42.703 51.3205C42.7309 50.6452 42.138 49.9835 41.524 50.0048C40.6144 50.0364 39.3226 51.2989 39.323 52.1556C39.3233 52.7966 39.9176 53.3412 40.6326 53.3563C41.4478 53.3735 42.6676 52.174 42.703 51.3205ZM53.0357 14.2832C52.6732 14.6328 52.3533 14.795 52.3419 14.9767C52.2744 16.0455 52.4152 17.0931 53.0478 18.0906C53.5167 16.9384 53.6237 15.7833 53.0357 14.2832Z" fill="#6D7971"/>
<path d="M56.8158 49.1857C57.1463 49.1857 57.48 49.156 57.8065 49.1912C58.7582 49.2937 59.1371 49.6929 59.2166 50.6813C59.2474 51.0641 59.2372 51.4534 59.2094 51.8371C58.9662 55.1826 57.7328 55.2022 55.552 54.7238C54.8212 54.5635 54.0287 54.6678 53.2648 54.682C52.7726 54.6912 52.2809 54.7971 51.79 54.7892C50.2277 54.7641 49.9223 54.4408 49.8455 52.8218C49.705 49.859 49.8419 49.7041 52.8792 49.4548C54.1901 49.3472 55.5023 49.2524 56.8139 49.1519C56.8146 49.1631 56.8152 49.1745 56.8158 49.1857ZM51.0312 53.87C52.3332 53.7546 53.5456 53.6472 54.6999 53.5448C54.6999 52.3438 54.6999 51.3341 54.6999 50.2505C54.3338 50.2505 54.0158 50.2398 53.6987 50.2521C50.7375 50.3663 50.5465 50.5987 51.0312 53.87ZM55.622 50.1722C55.8534 51.5019 56.0495 52.628 56.2914 54.0183C56.8193 53.8042 57.4525 53.7374 57.5482 53.4746C57.911 52.4796 58.4171 51.4543 57.9807 50.2843C57.6653 50.2425 57.401 50.1872 57.1349 50.1768C56.7016 50.1598 56.2672 50.1722 55.622 50.1722Z" fill="#6D7971"/>
<path d="M9.67079 52.4556C8.38721 54.1498 7.10347 55.8442 5.81989 57.5384C5.83276 56.3294 7.48344 54.1315 9.67079 52.4556Z" fill="#6D7971"/>
<path d="M4.36359 20.8762C4.80537 19.1829 5.88812 17.9106 7.00963 16.6589C6.37015 18.2168 5.45532 19.6109 4.36359 20.8762Z" fill="#6D7971"/>
<path d="M6.52476 21.3726C5.73144 22.562 4.93798 23.7515 4.14466 24.9409C4.04559 24.8778 3.94667 24.8145 3.8476 24.7513C4.45579 23.4451 5.36584 22.3299 6.52476 21.3726Z" fill="#6D7971"/>
<path d="M28.2788 35.6857C25.4502 35.689 23.273 34.3099 22.4272 32.0003C21.389 29.1656 23.5608 25.8557 26.5788 25.6731C29.6877 25.485 32.241 27.3622 33.019 30.4082C33.6681 32.9488 32.0395 35.3517 29.4307 35.6791C29.0523 35.7266 28.663 35.6857 28.2788 35.6857ZM23.7888 30.8906C23.7898 32.091 24.0818 32.8776 24.9005 33.4988C26.2377 34.5135 27.7675 34.8794 29.3998 34.4807C31.4882 33.9705 32.3638 32.1012 31.4915 30.1226C31.2718 29.6241 30.9879 29.1458 30.6778 28.6966C29.5273 27.0291 28.226 26.6191 26.2528 27.2663C24.5653 27.8199 23.7871 28.9646 23.7888 30.8906Z" fill="#6D7971"/>
</g>
<defs>
<clipPath id="clip0_215_200">
<rect width="64" height="64" fill="white" transform="translate(0.5)"/>
</clipPath>
</defs>
</svg>
