<svg width="65" height="64" viewBox="0 0 65 64" fill="none" xmlns="http://www.w3.org/2000/svg">
<g>
<path d="M59.7047 60.8696C58.4254 60.4169 57.0689 60.122 56.0559 59.1199C55.8113 58.878 55.6018 58.6008 55.3883 58.3537C55.4916 58.1416 55.5212 57.957 55.6285 57.8793C56.9414 56.927 57.8746 55.7439 58.3821 54.1548C58.7009 53.1566 59.4343 53.0249 60.3223 53.5805C61.2518 54.162 62.2876 54.5588 62.9013 55.613C63.7774 57.118 63.8268 58.0909 62.5495 59.284C61.834 59.9523 60.8657 60.3499 60.0112 60.8696C59.909 60.8696 59.8069 60.8696 59.7047 60.8696ZM56.5221 58.4149C57.687 59.4458 59.1782 59.9267 60.5965 59.6717C62.334 59.3593 63.2151 57.3002 62.0819 55.981C61.4533 55.2492 60.5604 54.7445 59.8805 54.211C58.713 55.6723 57.6199 57.0407 56.5221 58.4149Z" fill="#FCFCFC"/>
<path d="M33.6757 21.1435C30.9273 19.8932 30.7301 19.2808 31.7561 16.8614C32.2998 15.5792 32.8923 14.3499 33.8773 13.3492C34.1614 13.0608 34.458 12.7604 34.8043 12.5624C35.594 12.111 36.1909 12.3392 36.4308 13.2156C36.6038 13.8477 36.7457 14.5225 36.7159 15.1697C36.6234 17.1768 36.1099 19.0569 34.6712 20.638C36.0681 20.7494 36.6603 19.8317 37.0154 18.8098C37.3288 17.908 37.5413 16.9255 37.5579 15.9745C37.6155 12.6742 39.0185 10.2027 41.8468 8.52229C41.9288 8.47361 41.9784 8.3706 42.0584 8.2748C41.9117 8.017 41.7498 7.75962 41.6147 7.48898C41.4156 7.09036 41.0306 6.6171 41.553 6.27972C41.804 6.11773 42.2938 6.24628 42.6471 6.34477C42.9813 6.4379 43.3027 6.63135 43.5842 6.84145C43.8206 7.01784 43.9913 7.28212 44.2364 7.55855C48.584 6.44777 52.7293 7.32657 56.8087 8.8323C57.0893 8.93587 57.3881 9.03041 57.6834 9.04861C59.8502 9.1821 61.428 10.4451 62.628 12.0221C64.4213 14.379 63.9649 18.0385 61.4692 20.0232C59.2972 21.7503 58.6051 23.5581 59.6497 26.1218C59.9487 26.8557 60.0154 27.7166 60.0393 28.5236C60.0953 30.4147 58.902 31.4457 57.0003 31.1989C56.5018 31.1343 56.0253 30.8707 55.5283 30.8318C55.1728 30.804 54.7047 30.8932 54.4563 31.1177C54.0468 31.4878 54.2335 31.949 54.589 32.3238C55.0452 32.8048 55.4937 33.2931 55.9485 33.7755C58.1835 36.1459 58.1434 38.9319 55.8906 41.2548C54.8631 42.3143 53.8713 43.4151 52.9394 44.5591C51.9359 45.7913 51.4679 47.2198 51.6667 48.8393C51.9641 51.2613 51.4344 53.578 50.9465 55.9435C50.3399 58.8841 48.0428 59.4374 45.7198 58.8776C44.2807 58.5308 43.1615 57.6613 42.9878 55.9669C42.6921 53.0841 42.3072 50.2101 42.0414 47.3249C41.9712 46.564 41.5609 45.8019 41.9686 44.9792C42.0493 44.8161 41.6494 44.2692 41.3557 44.1027C40.9733 43.8857 40.4799 43.812 40.027 43.7801C37.3423 43.5914 34.8948 42.5007 32.3523 41.7794C31.215 41.4568 30.7245 40.7847 30.7941 39.6229C30.8354 38.9332 30.9947 38.1698 31.3521 37.5961C32.1578 36.3027 33.1181 35.1053 34.0196 33.8719C34.2586 33.5448 34.724 33.2299 34.7255 32.9076C34.7355 30.9423 36.5422 30.8212 37.6623 30.0822C38.0096 29.8531 39.0172 30.1978 39.4377 30.5871C40.6712 31.7293 41.913 31.7171 43.3875 31.1694C44.4277 30.7831 45.5683 30.6627 46.6672 30.4395C47.3418 30.3025 47.9432 30.0756 48.2776 29.4107C48.739 28.4933 48.3438 27.753 47.3247 27.6885C47.0267 27.6696 46.6915 27.699 46.4248 27.8198C45.3657 28.2991 44.5399 27.8272 43.7556 27.2095C43.0865 26.6825 43.0402 26.2988 43.6031 25.676C44.0115 25.2241 44.5333 24.8755 44.9445 24.4259C45.7337 23.5631 45.7289 23.1873 45.0185 21.9807C43.8208 22.0559 43.0728 22.7471 42.6404 23.8131C42.4503 24.2817 42.3419 24.7884 42.2396 25.2865C42.1027 25.9529 41.7703 26.4379 41.0703 26.5223C40.3296 26.6115 39.7858 26.2982 39.5173 25.5683C39.4515 25.3895 39.3508 25.2234 39.2479 25.0146C38.1287 25.3005 37.6622 26.0713 37.307 27.0255C36.9372 28.0187 36.5707 29.054 35.9751 29.913C35.005 31.3122 33.6386 31.3053 32.7886 29.8432C32.0836 28.6304 31.2645 27.2086 31.3063 25.9054C31.3607 24.2051 31.2076 22.0798 33.6757 21.1435ZM37.7229 42.0929L37.732 42.0815C38.172 42.1697 38.612 42.2579 39.0735 42.3504C40.0905 40.5718 41.348 39.0846 43.059 37.9813C41.9314 39.4059 40.804 40.8303 39.5922 42.3614C40.3975 42.5148 40.9408 42.6183 41.518 42.7282C42.7882 41.164 43.9859 39.5643 45.8091 38.5863C44.6003 39.9938 43.3915 41.4015 42.1211 42.8806C42.6223 43.1955 42.9447 43.3981 43.2199 43.571C44.3699 42.8089 44.9193 41.5128 46.2003 41.0726C45.6236 41.9288 45.0119 42.7495 44.2824 43.4471C43.438 44.2546 43.15 45.1985 43.1956 46.4202C44.4255 45.2532 45.5827 44.1554 46.7397 43.0575C46.8187 43.137 46.8979 43.2165 46.9769 43.296C45.9236 44.4271 44.8711 45.559 43.8166 46.689C42.9401 47.6282 42.8815 48.0343 43.4681 49.3506C44.0147 48.777 44.5496 48.2157 45.0846 47.6544C45.1777 47.7336 45.2708 47.8129 45.3638 47.892C44.8773 48.5034 44.4083 49.1301 43.8993 49.7223C43.3579 50.3522 43.2529 50.9653 43.8904 51.6892C44.5117 51.0909 45.1242 50.5011 45.7366 49.9112C45.4589 50.6914 45.0017 51.2863 44.5137 51.8548C43.9734 52.484 43.5657 53.128 44.0061 54.1219C44.7363 53.4136 45.4043 52.7655 46.0723 52.1174C46.1549 52.1897 46.2375 52.2619 46.3201 52.3342C45.8163 52.9388 45.3261 53.5551 44.8062 54.1454C43.7654 55.3268 43.9849 56.8231 45.3562 57.5848C46.3997 58.1645 47.5243 58.1405 48.6243 57.8094C49.6801 57.4918 49.6056 56.5039 49.7437 55.6644C49.8099 55.2621 49.8426 54.8516 49.9414 54.4575C50.4045 52.609 50.6101 50.7488 50.249 48.8576C49.9343 47.2099 50.4085 45.7379 51.1999 44.3174C52.1059 42.6912 53.3645 41.3692 54.667 40.0637C56.434 38.2927 56.4113 36.219 54.7117 34.3814C54.2623 33.8954 53.8253 33.3911 53.4404 32.8539C52.8613 32.0457 52.8752 31.2109 53.4284 30.4495C53.9709 29.7025 54.7312 29.4965 55.596 29.6702C55.9914 29.7496 56.3574 29.9737 56.7525 30.0571C58.0867 30.3388 58.8757 29.6905 58.7395 28.3369C58.6432 27.3792 58.4582 26.411 58.1605 25.497C57.3698 23.0693 58.0146 21.082 59.864 19.4271C61.1018 18.3195 61.7341 16.8933 62.0581 15.3178C62.2945 14.1679 62.1657 12.9939 61.2449 12.2078C60.2846 11.3881 59.2323 10.5572 58.0737 10.1155C56.0471 9.34296 53.9317 8.75808 51.8103 8.29116C49.4653 7.775 47.0919 7.844 44.9813 8.47164C44.8118 9.08812 44.703 9.48364 44.5942 9.87915C44.2918 9.7578 43.9389 9.69854 43.6972 9.50241C43.1799 9.08248 42.751 9.28129 42.3129 9.58735C40.6975 10.7152 39.5283 12.1205 39.4139 14.1994C39.3635 15.1139 39.3461 16.0415 39.1693 16.9347C38.9544 18.0203 38.6961 19.1233 38.2565 20.1317C37.7844 21.2147 36.8486 21.8409 35.6179 21.9605C35.0615 22.0146 34.4997 22.1012 33.9631 22.2532C32.7824 22.5877 31.6315 24.5058 31.9826 25.6611C32.2924 26.6808 32.7115 27.6758 33.1763 28.6362C33.4235 29.147 33.87 29.5613 34.3847 30.2225C34.9034 29.4893 35.3437 29.0049 35.6205 28.4403C35.9551 27.7578 36.0602 26.9558 36.4325 26.3008C36.822 25.6151 37.3228 24.9313 37.9341 24.4479C38.7517 23.8015 39.3409 24.0015 39.9807 24.8601C40.2019 25.157 40.4554 25.4297 40.784 25.8204C41.324 24.6664 41.6436 23.6316 42.2431 22.7983C42.8843 21.9071 43.7892 21.2056 44.4516 20.5479C45.5038 21.2818 46.6095 21.8097 46.6043 23.2807C46.5989 24.8162 45.3191 25.3767 44.5735 26.3585C44.914 26.9253 45.3942 27.0713 46.0077 26.9366C46.405 26.8494 46.8121 26.7623 47.2158 26.7572C48.2984 26.7438 49.2916 27.3878 49.5174 28.2003C49.7848 29.1629 49.2164 30.379 48.2342 30.9037C48.014 31.0213 47.7642 31.0892 47.5219 31.1586C45.909 31.62 44.2861 32.0481 42.6834 32.5425C41.6224 32.8699 40.4525 32.8664 39.8042 32.0892C38.3987 30.4044 37.1747 30.9009 35.8336 32.0147C35.7566 32.0786 35.6832 32.1469 35.5252 32.2863C36.0838 33.3228 35.3275 33.9901 34.7657 34.786C33.8878 36.0298 33.0189 37.3026 32.3466 38.6622C31.7452 39.8788 32.0887 40.406 33.3695 40.7953C33.8923 40.9542 34.426 41.0771 34.9311 41.2102C36.2311 38.9049 37.4683 37.415 38.7085 36.7679C37.5444 38.3844 36.4905 39.8475 35.3674 41.4069C36.2743 41.6707 36.9986 41.8818 37.7229 42.0929ZM35.363 13.3791C33.4945 14.6409 32.9184 16.5115 32.2741 18.3078C32.164 18.6148 32.4378 19.2747 32.7299 19.4556C33.0873 19.677 33.6898 19.6899 34.1128 19.5577C34.4354 19.4569 34.7179 19.0268 34.8902 18.6797C35.7045 17.0388 36.0347 15.3343 35.363 13.3791Z" fill="#FCFCFC"/>
<path d="M23.4435 7.57477C23.3265 8.12579 23.2473 8.49915 23.1706 8.86066C25.445 10.6169 25.8303 13.1378 25.9189 15.7143C25.9427 16.4096 25.5876 17.2397 25.146 17.8046C24.1441 19.0865 23.0436 20.3095 21.8577 21.4228C21.1725 22.0659 20.2823 22.5374 19.4122 22.9233C18.5899 23.2882 18.2086 23.7881 18.2601 24.6724C18.2958 25.2833 18.3638 25.9105 18.2697 26.5071C18.005 28.1866 18.8032 29.3 20.0079 30.3241C21.6006 31.6781 23.0259 33.2385 24.6728 34.5174C27.2134 36.4904 27.3222 39.1021 26.7781 41.8474C26.1019 45.2586 24.364 48.0722 21.6234 50.2831C19.2376 52.2076 17.5947 54.6023 17.4307 57.7994C17.3764 58.8576 16.7217 59.4523 15.7732 59.769C14.1767 60.3018 12.3981 59.4024 11.8576 57.8121C11.7438 57.4773 11.5929 57.1533 11.4387 56.8341C10.6537 55.2104 10.4929 53.5513 10.8974 51.7729C11.177 50.5434 11.1836 49.2537 11.3461 47.9952C11.4848 46.922 11.0127 46.1769 10.2585 45.4642C9.03753 44.3102 7.81599 43.1375 6.74613 41.8473C5.25071 40.0438 5.30292 39.2708 6.47112 37.2997C7.69323 35.2376 9.31198 33.5785 11.2877 32.2469C11.7108 31.9619 12.1514 31.697 12.5441 31.3745C13.1174 30.9035 13.9945 30.5995 13.9655 29.7056C13.9303 28.6241 13.6313 27.5539 12.805 26.7948C12.4651 26.4824 11.9041 26.3722 11.4225 26.2645C11.0319 26.1772 10.6053 26.2658 10.2022 26.2161C9.09496 26.0797 8.61901 25.7022 8.55608 24.568C8.45801 22.8005 7.55071 21.7634 5.97274 21.153C5.11976 20.8231 4.25169 20.4929 3.46841 20.0306C1.92529 19.12 1.56407 18.2064 2.00883 16.4532C2.23417 15.565 2.10718 14.8338 1.39784 14.2473C0.655211 13.6332 0.404327 12.8363 0.532026 11.9212C0.714051 10.6156 0.807604 9.2765 1.18252 8.02476C1.66947 6.39951 2.86519 5.38892 4.56861 5.04717C7.43966 4.47118 10.3523 4.07735 13.2055 4.88518C15.5954 5.56192 17.9051 6.53624 20.2184 7.45921C20.9143 7.73676 21.4779 7.99174 22.2067 7.54514C22.4752 7.38061 22.9492 7.55149 23.4435 7.57477ZM4.24929 14.9196L4.2198 14.8925C3.9009 15.5222 3.57467 16.1484 3.26522 16.7827C2.88608 17.5596 2.94929 18.2258 3.74794 18.727C4.84164 17.3573 5.89753 16.035 6.95328 14.7128C7.05416 14.7892 7.15505 14.8657 7.25594 14.9421C6.26708 16.3128 5.27822 17.6834 4.19482 19.1849C4.85223 19.4458 5.3571 19.646 5.89682 19.8602C6.90869 18.642 7.86834 17.4868 8.82785 16.3317C8.91463 16.3966 9.00127 16.4615 9.08805 16.5265C8.24974 17.6885 7.4113 18.8503 6.50075 20.1123C6.89091 20.3282 7.21008 20.5049 7.50669 20.669C8.34118 19.7105 9.09567 18.8438 9.85015 17.9772C9.93496 18.0501 10.0198 18.1229 10.1044 18.1959C9.56978 18.9272 9.05573 19.6748 8.49428 20.3847C8.00846 20.9989 8.2036 21.3551 8.86849 21.6741C9.45591 21.0397 10.0155 20.4353 10.5751 19.8308C10.655 19.9007 10.7349 19.9705 10.8146 20.0402C10.3923 20.5874 9.95245 21.1225 9.55595 21.6878C9.38959 21.925 9.17751 22.2521 9.2228 22.4939C9.38818 23.3754 9.65331 24.2382 9.88218 25.1127C10.6837 25.1892 11.4063 25.1927 12.096 25.3452C12.6192 25.4609 13.1904 25.6637 13.5827 26.0074C14.5612 26.8651 15.1931 27.9808 15.4806 29.2579C15.663 30.0676 15.4766 30.7292 14.6981 31.2258C13.5379 31.966 12.4348 32.7961 11.3114 33.5938C9.62114 34.794 8.28333 36.327 7.18723 38.0692C6.37206 39.3648 6.37785 39.8251 7.39804 40.9174C8.29843 41.8813 9.30281 42.7522 10.297 43.6233C11.6316 44.7928 13.143 45.8316 12.9753 47.9338C12.9653 48.0591 13.1032 48.1963 13.2141 48.4082C13.796 47.7429 14.3431 47.1174 14.8901 46.4919C14.4193 48.2227 12.6042 49.3038 12.7589 51.4658C13.6902 50.6244 14.1797 49.5469 15.2286 49.0576C14.4682 50.2732 13.6347 51.4177 12.7273 52.5002C12.0728 53.281 11.9777 54.0647 12.3996 55.129C13.3023 53.9373 13.9648 52.725 15.1047 51.9396C14.4211 53.1509 13.6485 54.2861 12.8255 55.3834C12.1369 56.3013 12.4795 57.2587 12.7482 58.1449C12.9886 58.9377 13.8397 58.9796 14.5527 59.0304C15.9478 59.1299 16.6592 58.5651 16.7107 57.0794C16.7818 55.028 17.5888 53.316 18.8705 51.8066C19.7931 50.7202 20.7971 49.6976 21.8189 48.7023C22.829 47.7183 23.5987 46.5851 24.0488 45.2672C24.493 43.9668 24.906 42.6442 25.1809 41.3002C25.6295 39.1069 25.4203 37.1239 23.5386 35.47C21.8615 33.9961 20.3963 32.2744 18.8938 30.6115C18.1518 29.7902 17.3528 28.9511 17.3568 27.7117C17.3604 26.5378 17.3659 25.3638 17.3614 24.19C17.3576 23.202 17.8172 22.5097 18.7421 22.2111C21.3905 21.3563 22.6366 19.0337 24.1896 17.0406C24.4177 16.7478 24.4764 16.2766 24.5015 15.8808C24.6074 14.2122 24.2149 12.64 23.4422 11.1677C23.1309 10.5747 22.695 10.0895 22.0383 9.9895C21.1584 10.5367 20.8408 11.7151 19.6167 11.788C19.3369 10.7015 20.2101 10.0369 20.3743 9.04297C19.9092 8.82496 19.4141 8.58339 18.9113 8.35918C17.4231 7.6957 15.9378 7.02503 14.4393 6.3854C13.6543 6.05028 12.866 5.61511 12.0412 5.50181C9.59687 5.16612 7.15731 5.38173 4.74471 5.88759C3.4337 6.16246 2.61515 6.99187 2.07261 8.18068C1.44441 9.55701 1.54586 10.9628 1.83146 12.3774C1.99316 13.1782 2.58185 13.3184 3.26593 13.1725C3.22289 13.9842 3.26819 14.7116 4.24929 14.9196Z" fill="#FCFCFC"/>
<path d="M60.6918 40.3797C60.322 39.5879 60.1238 39.1488 59.9132 38.7156C59.4724 37.809 59.0765 36.8749 58.5644 36.0101C58.1331 35.2817 57.6841 34.599 58.2348 33.7717C58.6788 33.1047 59.3224 32.5889 60.1367 32.7271C61.068 32.8853 62.1931 33.073 62.3758 34.2381C62.627 35.8398 62.7703 37.4901 61.9024 38.9908C61.6646 39.4017 61.2728 39.7234 60.6918 40.3797ZM61.1177 38.3616C61.632 37.072 61.6851 35.8859 61.4963 34.6764C61.3902 33.9961 60.8557 33.7445 60.2808 33.7322C59.9313 33.7248 59.4806 33.902 59.244 34.1543C58.8183 34.6084 59.1269 35.086 59.4105 35.536C59.9498 36.3918 60.4589 37.2666 61.1177 38.3616Z" fill="#FCFCFC"/>
<path d="M64.4833 23.4707C64.3715 24.0581 64.2786 24.9825 64.0026 25.8485C63.8078 26.4596 63.4367 27.0537 63.014 27.5427C62.5105 28.1251 61.6638 28.0911 61.313 27.4456C60.5743 26.0867 60.0293 24.6365 60.6764 23.071C61.0783 22.0988 61.8187 21.5421 62.9213 21.515C64.1788 21.4841 64.5924 21.8939 64.4833 23.4707ZM62.2124 27.0913C63.2979 25.6492 63.3549 24.1977 63.3179 22.7251C61.9965 22.3839 61.6738 22.5052 61.3694 23.4999C60.9819 24.7664 61.4151 25.856 62.2124 27.0913Z" fill="#FCFCFC"/>
<path d="M62.6978 43.2265C62.5168 44.4762 62.0897 45.5881 61.1293 46.4399C60.6275 46.8849 60.0613 47.0294 59.45 46.7166C58.8472 46.408 58.5728 45.8442 58.6306 45.2055C58.7541 43.8439 59.4839 42.7246 60.3234 41.7155C60.5242 41.474 61.2076 41.4419 61.5763 41.5732C62.2941 41.8291 62.619 42.4811 62.6978 43.2265ZM59.9639 45.745C60.9655 44.9659 61.5947 44.0327 61.5292 43.3016C61.5059 43.0421 61.3321 42.7282 61.1258 42.5758C60.9768 42.4657 60.5264 42.4897 60.4427 42.6123C60.08 43.1439 59.7376 43.7094 59.5139 44.3095C59.3147 44.8444 59.4255 45.3901 59.9639 45.745Z" fill="#FCFCFC"/>
<path d="M26.0113 5.44707C26.0113 5.13424 25.9523 4.94728 26.0205 4.84512C26.622 3.94332 29.4316 2.93117 30.411 3.27885C30.6081 3.34884 30.8552 3.59168 30.8708 3.77286C30.8872 3.96307 30.6971 4.2934 30.5216 4.35845C29.0726 4.89479 27.6167 5.43649 26.0113 5.44707Z" fill="#FCFCFC"/>
<path d="M38.9524 5.29794C37.3776 5.65747 36.3201 4.67736 35.1109 4.27464C34.9542 4.22258 34.8269 3.86925 34.8223 3.65251C34.8195 3.51832 35.0506 3.30991 35.2171 3.25319C36.0412 2.97281 36.8168 3.21015 37.5483 3.58619C38.2087 3.92597 38.9197 4.25291 38.9524 5.29794Z" fill="#FCFCFC"/>
<path d="M51.0565 14.6547C51.7787 14.1418 52.5391 13.4433 53.4284 13.0081C54.6735 12.3989 55.7048 13.1042 55.6305 14.5051C55.5952 15.1711 55.3197 15.9165 54.9196 16.4512C54.1601 17.4665 53.2701 18.394 52.3644 19.2873C51.4241 20.2151 50.3014 20.3422 49.1333 19.7864C47.2154 18.8736 45.5391 16.0402 45.6844 13.8731C45.7177 13.3756 45.854 12.8579 46.0621 12.4042C46.6501 11.1223 47.7543 10.8446 48.7626 11.8312C49.6211 12.671 50.2943 13.7003 51.0565 14.6547Z" fill="#FCFCFC"/>
<path d="M37.7228 42.0929C37.8663 41.6168 37.9042 41.0683 38.172 40.6775C39.1735 39.2162 40.2503 37.8066 41.4363 36.4724C40.5893 38.5946 38.991 40.2191 37.7313 42.0734C37.732 42.0814 37.7228 42.0929 37.7228 42.0929Z" fill="#FCFCFC"/>
<path d="M41.5682 22.8154C41.9076 21.3011 42.4974 20.4787 44.0662 19.4165C43.3027 20.4553 42.5392 21.4943 41.5682 22.8154Z" fill="#FCFCFC"/>
<path d="M33.6426 39.6516C34.0786 38.9798 34.5148 38.308 34.9508 37.6362C35.0493 37.6956 35.1476 37.7549 35.2461 37.8142C34.8168 38.4961 34.3875 39.1781 33.9581 39.86C33.853 39.7905 33.7478 39.721 33.6426 39.6516Z" fill="#FCFCFC"/>
<path d="M15.3929 38.0969C15.5731 37.3317 15.6473 36.6694 15.8873 36.0738C16.3188 35.0024 17.125 34.484 17.9648 34.6019C19.0667 34.7566 20.0972 35.6254 20.0659 36.6977C20.0156 38.4165 19.7876 40.1355 19.5283 41.838C19.4758 42.1821 18.9977 42.5543 18.6284 42.7315C18.2342 42.9207 17.7358 42.9572 17.2843 42.9515C15.4276 42.9282 13.6386 42.5137 11.9747 41.7132C10.4693 40.989 10.37 39.9866 11.5529 38.8427C12.6661 37.7663 13.9504 37.5943 15.3929 38.0969Z" fill="#FCFCFC"/>
<path d="M16.0196 18.5569C15.8505 16.8513 16.2165 15.6594 16.8057 14.5271C17.0331 14.0902 17.4497 13.8269 17.9536 14.0304C18.5387 14.2666 18.4094 14.775 18.2213 15.1942C17.8471 16.0284 17.4417 16.8516 16.9943 17.6486C16.842 17.9194 16.5245 18.0973 16.0196 18.5569Z" fill="#FCFCFC"/>
<path d="M14.1811 25.3186C13.8307 23.7428 13.9679 22.5451 14.2244 21.375C14.2818 21.1129 14.7815 20.9476 15.0775 20.7378C15.2109 21.0317 15.487 21.344 15.4517 21.616C15.3288 22.5637 15.1221 23.5033 14.8914 24.4322C14.8333 24.6666 14.5677 24.8496 14.1811 25.3186Z" fill="#FCFCFC"/>
<path d="M13.8389 36.2754C13.2152 35.4412 13.3622 34.4783 13.4859 33.54C13.5082 33.3711 13.835 33.1179 14.0074 33.1285C14.1768 33.1388 14.472 33.4415 14.4648 33.605C14.4266 34.4858 14.3113 35.3633 14.2227 36.2418C14.0947 36.2531 13.9669 36.2643 13.8389 36.2754Z" fill="#FCFCFC"/>
<path d="M4.24928 14.9195C4.43963 14.535 4.62998 14.1505 4.82033 13.7659C4.93547 14.3399 4.70096 14.6989 4.21979 14.8923C4.21979 14.8924 4.24928 14.9195 4.24928 14.9195Z" fill="#FCFCFC"/>
</g>
</svg>
