<svg width="65" height="64" viewBox="0 0 65 64" fill="none" xmlns="http://www.w3.org/2000/svg">
<g clip-path="url(#clip0_220_465)">
<path d="M13.1858 36.8365C10.3285 34.4207 7.53796 32.2136 4.9244 29.8138C1.48944 26.6598 -0.202813 22.8728 0.77404 18.0324C1.5168 14.3522 2.89107 11.149 6.37419 9.46269C8.58624 8.39164 11.0016 7.5062 13.4171 7.13941C18.0397 6.43761 22.742 6.2597 27.4135 6.68891C33.3652 7.23557 38.5856 9.66304 43.225 13.3668C43.7982 13.8244 44.1815 14.5198 44.5945 15.0327C46.6072 14.9734 48.6069 14.8306 50.6027 14.872C56.0956 14.986 60.021 17.6566 62.5461 22.4585C63.6897 24.6332 64.3006 26.9931 64.4782 29.4268C64.6425 31.6784 63.8558 33.734 62.7682 35.6805C60.6597 39.4544 57.9515 42.7232 54.508 45.3435C51.783 47.4169 49.1578 49.5969 46.1716 51.3537C40.5924 54.636 34.5915 56.4391 28.2327 57.1647C25.7682 57.446 23.2713 57.4956 20.7872 57.5405C17.295 57.6037 14.544 56.2406 12.9812 52.9951C12.06 51.0822 11.0946 49.1564 10.4856 47.135C9.50625 43.8847 10.0904 40.8016 12.2152 38.0781C12.542 37.6592 12.8693 37.2413 13.1858 36.8365V36.8365ZM56.05 22.3289C56.0415 22.9152 55.7537 23.6026 56.8118 23.9908C56.7656 23.2936 56.7281 22.7256 56.684 22.0602C56.3134 22.2337 56.1606 22.3053 56.0078 22.3769C56.0879 21.7332 56.4173 21.0132 55.5045 20.6265C54.9223 22.4552 54.9223 22.4552 55.4318 23.3444C55.6513 22.9842 55.8503 22.6572 56.05 22.3289ZM47.842 20.8635C47.8248 20.5367 47.8075 20.21 47.7721 19.5407C47.1655 20.0049 46.7846 20.2964 46.4037 20.5878C46.0933 19.8775 46.3826 19.4722 47.0721 19.2651C49.676 18.4829 52.329 18.3322 54.9426 19.0423C57.6545 19.7792 58.5709 21.2033 58.4609 24.0226C58.4428 24.4901 58.3756 24.9655 58.2565 25.4177C57.8047 27.1321 57.2995 28.8325 56.8575 30.5492C56.3963 32.3405 55.4054 33.7969 54.0177 34.958C52.5679 36.1711 51.0653 37.3285 49.5258 38.4257C45.0227 41.6345 39.9962 43.9225 35.0933 46.4059C31.0519 48.4528 26.7048 49.6624 22.1459 49.8569C20.0156 49.9478 17.8892 49.7659 15.9119 48.8042C13.4962 47.6293 12.6688 45.659 13.5837 43.015C14.0526 44.2775 14.4909 45.4585 14.9293 46.6393C15.0188 46.616 15.1082 46.5929 15.1975 46.5697C14.9473 44.941 14.6973 43.3123 14.4472 41.6834C15.5345 43.5285 15.4126 45.7388 16.5746 47.5734C16.7675 47.134 16.8661 46.6938 16.7978 46.281C16.6725 45.5247 16.4078 44.7919 16.2751 44.0364C16.0705 42.8716 15.9283 41.6959 15.7597 40.5249C15.885 40.5026 16.0104 40.4804 16.1357 40.4581C16.5064 41.9552 16.8771 43.4525 17.3191 45.2377C18.5689 43.1426 17.4978 41.3381 17.6877 39.5744C16.5734 38.8834 15.5307 38.2369 14.4203 37.5483C12.7087 39.3661 11.58 41.2963 11.459 43.837C11.3104 46.956 12.8364 49.4013 14.2876 51.908C14.5578 52.3744 14.9447 52.7732 15.3294 53.2699C15.4889 52.881 15.5694 52.6852 15.685 52.4033C16.3329 53.759 16.6481 55.3582 18.6759 55.1977C18.2868 54.1506 17.9306 53.1919 17.5745 52.2332C19.5639 55.5211 19.5639 55.5211 20.6785 55.3607C20.6068 54.9051 20.5352 54.4497 20.4634 53.9941L20.4236 54.0287C20.6584 54.3488 20.9411 54.6448 21.1171 54.9944C21.4113 55.5796 21.9051 55.7036 22.457 55.6226C23.8584 55.4172 25.2792 55.478 26.7431 55.3405C26.4114 54.48 26.1067 53.6896 25.802 52.8991C26.2538 53.2068 26.4787 53.6018 26.6653 54.0143C27.0685 54.9054 27.5439 55.4164 28.7065 55.1194C31.7388 54.3447 34.9265 54.0328 37.8366 52.9545C44.3933 50.5251 50.2718 46.8872 55.2866 41.9405C57.5429 39.7148 59.4329 37.2086 60.9066 34.4205C61.5024 33.2935 62.0009 31.9957 62.0908 30.7431C62.349 27.1455 61.3243 23.857 59.2474 20.875C57.8583 18.8803 55.975 17.6194 53.7212 16.9192C50.7108 15.9838 47.6599 16.0672 44.6019 16.7944C41.3985 17.5562 38.556 19.1759 35.5638 20.4495C30.2857 22.6965 25.5823 25.8551 21.0209 29.2642C20.7149 29.493 20.4489 29.7753 19.9738 30.205C21.1241 30.7644 22.0453 31.2126 23.1096 31.7303C23.2133 31.0986 23.2775 30.7074 23.355 30.2361C22.904 30.2762 22.5485 30.3078 22.1082 30.347C23.4137 28.2619 27.9947 25.5148 30.5652 25.1995C31.4339 27.1661 30.5426 29.2045 30.6769 31.2696C31.7016 30.963 31.6726 30.1807 31.7958 29.5099C32.0799 27.9631 32.3377 26.4116 32.606 24.862C32.7012 24.8772 32.7962 24.8925 32.8914 24.9077C32.7476 26.5801 32.6038 28.2524 32.4352 30.2127C33.1329 29.7433 33.5514 29.4617 33.915 29.2173C33.9603 27.5339 34.1522 26.0107 34.9795 24.6205C34.8459 25.9362 34.7124 27.2518 34.5403 28.9486C37.6081 26.9055 40.7197 25.9942 43.8262 25.0534C44.2767 24.9169 44.6168 24.4163 45.0081 24.084C46.0775 24.4803 46.3829 24.405 46.7671 23.5431C47.1699 22.639 47.5208 21.7119 47.8943 20.7947C47.7069 21.7522 47.5196 22.7098 47.2515 24.0799C47.9844 23.5952 48.4118 23.3126 48.7389 23.0962C48.9848 23.2137 49.2004 23.3167 49.4933 23.4568C49.9183 22.1033 50.2993 20.8904 50.7071 19.5918C49.4114 19.5138 48.3307 19.5272 47.842 20.8635V20.8635ZM28.4513 33.559C29.3847 32.8991 29.7726 31.9899 29.8834 30.8565C30.0526 29.1247 30.3507 27.4056 30.5943 25.6813C30.4754 25.6182 30.3565 25.5551 30.2375 25.4921C28.6487 26.4686 27.0596 27.4451 25.4296 28.4469C25.2927 29.64 25.1372 30.807 25.0329 31.9785C24.9749 32.6297 25.3127 32.9262 25.9855 32.8469C26.2386 31.3805 26.4838 29.9587 26.7292 28.5371C26.8394 28.5532 26.9499 28.5691 27.0601 28.5851C26.9391 30.1345 26.818 31.6841 26.6968 33.2358C27.2234 33.4142 27.6065 33.5708 28.0044 33.6642C28.1449 33.6973 28.3218 33.5755 28.4822 33.5244L28.4513 33.559V33.559ZM51.7262 28.4492C51.6926 27.796 51.659 27.1429 51.6226 26.4366C52.9647 27.2964 53.7449 29.0561 53.3878 30.3634C52.9678 31.9007 52.1593 33.1473 50.7739 34.0316C47.8948 35.869 44.9129 37.1149 41.3853 37.3809C35.0515 37.8586 29.1624 36.4878 23.4194 34.0575C19.5105 32.4033 16.0611 29.9779 12.7186 27.4333C10.4159 25.6803 8.2781 23.6822 6.82617 21.0912C5.50972 18.7422 5.78313 16.3387 6.96263 14.133C7.83366 12.5038 9.52411 11.6572 11.2137 11.0218C11.3389 11.1096 11.4641 11.1974 11.5892 11.2852C11.0191 13.0962 10.449 14.9074 9.87894 16.7184C11.7429 15.9373 11.4508 13.7218 13.0059 12.4678C12.501 13.954 12.0758 15.2062 11.6534 16.4496C12.5471 16.8549 12.8036 16.3988 13.0492 15.7696C13.4741 14.681 13.9705 13.6203 14.4369 12.5479C14.5637 12.5938 14.6905 12.6395 14.8173 12.6853C14.4107 13.9284 14.0041 15.1713 13.5935 16.4266C14.4583 16.7598 14.6467 16.2849 14.888 15.7758C15.5235 14.4351 16.2042 13.1157 16.8668 11.7878C16.9712 11.8381 17.0755 11.8882 17.1799 11.9385C16.6045 13.4415 16.0292 14.9446 15.4186 16.5397C16.8781 16.7893 16.7492 15.6057 17.1484 15.0221C17.6166 14.3375 17.9706 13.5747 18.3741 12.8459C18.4722 12.895 18.5702 12.9442 18.6683 12.9932C18.2003 14.1977 17.7321 15.4023 17.2641 16.6068C17.4099 16.682 17.5558 16.7572 17.7016 16.8326C18.7388 15.1674 19.7761 13.5021 20.8132 11.8368C20.9298 11.9054 21.0466 11.974 21.1633 12.0425C20.3945 13.5344 19.6258 15.0263 18.862 16.5087C19.0222 16.6542 19.0969 16.7775 19.1942 16.7992C19.4209 16.8495 19.6584 16.8508 19.8832 16.8711C20.5147 14.8448 21.5822 13.1663 22.974 12.1649C22.1624 13.8357 21.4457 15.311 20.684 16.8793C24.9174 17.7329 29.1293 18.3689 33.0801 20.136C35.4934 18.9735 37.9316 17.7988 40.4993 16.562C38.6184 15.0419 36.5941 14.1913 34.5602 13.4168C32.506 12.6344 30.3773 12.0473 28.2699 11.371C30.8643 10.6235 38.8072 13.759 40.9756 16.3908C41.2486 16.3067 41.5401 16.2414 41.8109 16.1267C42.0538 16.0238 42.2741 15.867 42.5335 15.7171C42.3551 15.4794 42.2606 15.3291 42.1418 15.2009C41.9811 15.0273 41.8145 14.8548 41.6287 14.7093C36.375 10.5947 30.4707 8.32219 23.738 8.3941C22.4935 8.40737 21.2472 8.36248 20.0048 8.41605C17.7054 8.51516 15.38 8.48797 13.1181 8.84608C10.6725 9.23335 8.28006 9.9725 6.10488 11.2582C5.20256 11.7914 4.48683 12.4706 4.21735 13.5C3.76865 15.2132 3.3324 16.9314 2.95382 18.661C2.1054 22.5358 3.6122 25.6688 6.31407 28.2501C8.53628 30.3734 10.9772 32.2674 13.3172 34.2677C17.8491 38.1413 23.319 39.9683 28.935 41.4531C29.4206 41.0455 29.8906 40.6511 30.3606 40.2566C30.4117 40.3142 30.4628 40.3717 30.5139 40.4294C30.1787 40.7965 29.8434 41.1636 29.4904 41.5503C30.7043 42.075 30.7035 42.0738 31.3574 41.5239C31.9354 41.038 32.3895 40.3591 33.5714 40.0225C32.7188 40.9798 32.1482 41.6205 31.4724 42.3793C33.0284 42.9324 33.5893 41.5483 34.8246 41.1437C34.4228 41.7267 34.1564 42.113 33.8742 42.5225C34.6754 43.1213 35.295 43.0549 35.9253 42.3448C36.672 41.5037 37.4842 40.7197 38.2875 39.9307C38.5699 39.6534 38.9096 39.4344 39.2232 39.1888C39.2805 39.2648 39.3379 39.3408 39.3952 39.4168C38.409 40.5403 37.4228 41.6636 36.4345 42.7897C37.1841 43.351 37.5853 42.9458 37.9598 42.5651C38.9984 41.5093 40.0139 40.4306 41.0501 39.3723C41.428 38.9862 41.8381 38.6317 42.2335 38.2627C42.3071 38.344 42.3805 38.4251 42.454 38.5063C41.8479 39.3271 41.2418 40.1478 40.6356 40.9684C45.7881 38.795 50.378 35.8919 54.1664 31.9606C53.7022 29.5404 54.3884 26.9998 52.4064 25.1072C50.0197 25.2208 47.674 25.6041 45.2521 26.8185C46.4348 27.2944 46.941 28.7965 48.4062 27.9359C47.7783 29.3007 49.1452 29.9895 49.318 31.2252C49.7974 30.7934 50.1365 30.4879 50.4757 30.1822C50.1691 30.9952 49.8624 31.8083 49.5557 32.6213C50.4094 31.9511 50.9752 31.1337 51.6831 30.4669C52.4486 29.7458 52.473 29.139 51.7262 28.4492V28.4492ZM18.6143 29.1654C22.0762 25.8397 26.3629 23.8321 30.5596 21.3201C30.1212 21.1038 29.9284 20.9766 29.7166 20.9092C24.1528 19.1411 18.42 18.351 12.6136 18.1074C10.9187 18.0363 9.23759 18.4755 7.65837 19.1896C8.90684 22.0602 13.3028 26.0715 18.6143 29.1654V29.1654ZM29.9869 34.237C35.7936 35.7481 41.5763 36.2148 47.3414 34.3289C47.7531 31.1664 46.0032 29.418 43.8612 27.8705C43.2864 27.4553 42.7677 27.3965 42.0627 27.5952C37.5532 28.8659 33.665 31.2572 29.9869 34.237V34.237ZM18.7311 48.2985C24.2965 48.3871 29.2969 47.0546 34.3687 44.5327C33.6927 44.2808 33.3796 44.1198 33.047 44.0483C31.897 43.8013 30.7261 43.6408 29.5895 43.3457C27.537 42.813 25.506 42.1987 23.461 41.6364C22.831 41.4631 22.2048 41.3247 21.6836 41.9608C20.2107 43.7579 18.9275 45.6361 18.7311 48.2985ZM7.17314 17.6228C7.78812 16.2702 8.27368 15.2024 8.75923 14.1345C8.84262 14.1766 8.92617 14.2187 9.00955 14.261C8.65734 15.2924 8.30529 16.3238 7.8312 17.712C8.46371 17.386 8.91355 17.3067 9.00038 17.085C9.63485 15.4662 10.1964 13.819 10.8304 12.0424C7.70817 13.5339 6.82961 14.8124 7.17314 17.6228V17.6228ZM53.8784 20.8406C53.7472 21.6027 53.634 22.2602 53.5208 22.9178C53.6514 22.9607 53.7819 23.0036 53.9127 23.0466C54.7367 22.3538 54.6133 21.2277 55.0797 20.2228C54.2498 20.0125 53.5863 19.8442 52.7917 19.6429C52.465 20.8021 52.1723 21.8405 51.8417 23.0135C53.4777 23.034 52.9299 21.4518 53.8784 20.8406V20.8406ZM50.2071 23.2294C50.3404 23.2739 50.4736 23.3183 50.607 23.3629C51.8484 22.4706 51.8138 21.0078 52.2529 19.2923C51.6135 19.5988 51.1051 19.6821 51.0363 19.9027C50.6959 20.9915 50.472 22.1167 50.2071 23.2294ZM18.1382 39.7065C18.3254 40.9192 18.4619 41.8029 18.6477 43.0055C19.4299 42.0956 19.9674 41.4703 20.5976 40.7374C19.7213 40.3703 19.0828 40.1024 18.1382 39.7065V39.7065ZM55.9396 28.3176C56.1534 27.4192 56.311 26.7576 56.4737 26.0744C55.6709 25.7201 55.0057 25.4265 54.1138 25.0329C54.7776 26.2271 55.2981 27.1633 55.9396 28.3176V28.3176ZM24.3324 32.1993C24.4916 31.2115 24.6507 30.2238 24.8359 29.0745C23.421 29.8836 23.2897 30.492 24.3324 32.1993Z" fill="#555E58"/>
<path d="M23.9553 51.9658C24.2154 52.6281 24.4754 53.2905 24.7355 53.9528C24.6354 53.989 24.5353 54.0254 24.4351 54.0616C24.1967 53.3928 23.9582 52.724 23.7198 52.0553C23.7982 52.0255 23.8766 51.9958 23.9553 51.9658Z" fill="#555E58"/>
<path d="M22.1206 52.5259C22.2758 52.8511 22.4307 53.1762 22.5857 53.5014C22.5154 53.534 22.4452 53.5666 22.3749 53.5994C22.2251 53.2717 22.0756 52.9439 21.9258 52.6163C21.9909 52.5862 22.0558 52.556 22.1206 52.5259V52.5259Z" fill="#555E58"/>
<path d="M20.4633 53.9944C20.2049 53.6027 19.9466 53.2111 19.6884 52.8195C19.8064 52.7669 19.9243 52.7145 20.0423 52.6619C20.1696 53.1173 20.297 53.5725 20.424 54.0284C20.4236 54.0289 20.4633 53.9944 20.4633 53.9944V53.9944Z" fill="#555E58"/>
<path d="M45.7404 22.2808C45.4876 22.9 45.2349 23.5194 44.9819 24.1386C45.2347 23.5194 45.4875 22.9002 45.7404 22.2808Z" fill="#555E58"/>
<path d="M46.4509 20.5056C46.1986 21.1245 45.9463 21.7436 45.694 22.3625C45.9463 21.7434 46.1986 21.1245 46.4509 20.5056Z" fill="#555E58"/>
<path d="M28.4819 33.5246C28.1177 31.9038 28.3031 30.0805 29.2313 28.0288C29.1381 28.9416 29.0713 29.858 28.9447 30.7661C28.8149 31.6964 28.6265 32.6187 28.4575 33.5516C28.4512 33.559 28.4819 33.5246 28.4819 33.5246Z" fill="#555E58"/>
</g>
<defs>
<clipPath id="clip0_220_465">
<rect width="64" height="64" fill="white" transform="translate(0.5)"/>
</clipPath>
</defs>
</svg>
