<svg width="65" height="64" viewBox="0 0 65 64" fill="none" xmlns="http://www.w3.org/2000/svg">
<g clip-path="url(#clip0_220_509)">
<path d="M29.0893 49.2517C28.3501 46.3388 27.6658 43.6423 27.0243 41.1144C25.7252 40.1464 24.4479 39.301 23.2923 38.3131C20.219 35.6855 17.1756 33.0216 14.1631 30.3242C11.5159 27.9539 9.00606 25.4244 7.70556 22.0322C6.10847 17.8659 5.53725 13.6341 7.78204 9.4787C10.0344 5.30972 13.6281 2.92546 18.2569 2.38644C23.7339 1.7485 28.8121 2.84419 32.9519 6.89428C35.9052 3.96759 39.5838 2.53025 43.5505 1.81475C46.4612 1.28966 49.2043 1.99742 51.709 3.57238C52.8555 4.29329 53.6914 5.30941 54.1956 6.54613C55.634 10.0745 56.1314 13.6418 54.7733 17.3574C53.6906 20.3195 52.3856 23.1514 50.6121 25.7583C49.1051 27.9731 47.5337 30.1448 46.0596 32.3811C44.9328 34.0904 43.9139 35.8709 42.8469 37.6196C42.6692 37.9109 42.5557 38.2908 42.3011 38.4773C41.0326 39.406 41.004 40.6435 41.0549 42.0811C41.123 44.0036 40.8592 45.938 40.7309 47.9812C41.9746 48.0139 42.1755 48.9579 42.2072 49.9647C42.2446 51.1485 42.1882 52.2813 41.7969 53.4758C41.349 54.8432 41.4419 56.3882 41.3054 57.8565C41.2263 58.7058 41.2195 59.5669 41.0662 60.4019C40.9321 61.1324 40.4657 61.5416 39.6352 61.6051C37.0322 61.8038 34.4335 62.0616 31.8358 62.3227C30.416 62.4655 29.9475 62.187 29.6638 60.8817C29.3985 59.6604 29.1512 58.435 28.9057 57.2096C28.6778 56.0726 28.5873 54.9696 27.7928 53.9295C27.3074 53.2939 27.6017 52.0739 27.5157 51.1191C27.4077 49.9156 28.5631 49.7749 29.0893 49.2517V49.2517ZM13.1687 15.9809L13.1311 15.9437C12.8721 16.4276 12.6664 16.9505 12.3439 17.3875C11.5315 18.4882 10.6897 19.5693 9.81505 20.621C9.17649 21.3887 9.31442 21.9945 10.0242 22.6551C10.9541 21.5356 11.8109 20.4789 12.6955 19.4461C13.5843 18.408 14.4518 17.3425 15.7048 16.6676C13.9167 18.8712 12.1284 21.0746 10.3787 23.231C11.599 25.4821 14.4698 28.4765 16.0712 29.2561C17.0469 28.1235 17.9864 26.9774 18.9871 25.8873C19.9555 24.8323 20.987 23.835 21.9907 22.8124C22.0709 22.89 22.1511 22.9675 22.2314 23.0451C20.2806 25.302 18.3298 27.5588 16.4219 29.7661C20.0126 32.8823 23.4392 35.8797 26.908 38.8276C27.2349 39.1055 27.8343 39.1897 28.2949 39.162C30.4499 39.0317 32.6032 38.857 34.752 38.647C36.7197 38.4546 38.6807 38.1962 40.2886 38.0086C41.4394 36.048 42.3195 34.3871 43.3512 32.8264C45.2375 29.9726 47.2355 27.193 49.1453 24.3544C50.7447 21.9771 51.9172 19.3874 52.8723 16.686C53.9078 13.7571 53.671 10.858 52.8166 7.96241C52.4734 6.79892 51.8971 5.73589 50.8992 4.9899C48.7476 3.38151 46.3244 2.62298 43.6683 3.15519C40.3405 3.82176 37.2191 5.03092 34.5634 7.24459C34.0506 7.672 33.4775 8.02727 32.9493 8.40375C32.5916 8.16768 32.3292 8.04028 32.1228 7.85142C28.6814 4.70058 24.5364 3.53368 19.9908 3.72099C14.891 3.9309 11.0998 6.30046 8.88794 10.9752C8.51967 11.7537 8.35713 12.6294 8.09953 13.4602C9.19476 12.8215 9.86923 11.8453 10.9292 11.338C10.3045 12.2257 9.63811 13.0631 8.88423 13.8128C7.79968 14.8915 7.84767 16.0771 8.36734 17.3683C8.45403 17.5837 8.50202 17.8561 8.45341 18.0769C8.25619 18.9704 8.64382 19.6936 8.97974 20.7113C9.47588 20.1288 9.78672 19.749 10.1134 19.3832C11.1285 18.2462 12.1498 17.1146 13.1687 15.9809V15.9809ZM40.7617 49.58C40.3391 49.5455 40.0055 49.4763 39.6779 49.4981C36.6115 49.7026 33.5427 49.8841 30.4816 50.1522C28.6128 50.316 28.3622 50.7469 28.7816 52.6095C28.8302 52.8255 28.937 53.0284 29.0334 53.281C29.3217 53.3118 29.6011 53.3764 29.8777 53.3657C32.6049 53.2603 35.3331 53.1702 38.0579 53.0202C41.0589 52.8547 41.0789 52.8036 40.7617 49.58V49.58ZM31.8545 40.3507C30.6167 40.5027 29.4577 40.645 28.1052 40.811C29.1348 43.5957 29.6291 46.3801 30.8864 49.0206C31.7857 48.8407 32.5374 48.6904 33.2838 48.541C32.7988 45.7612 32.3434 43.1517 31.8545 40.3507ZM33.0803 40.4387C33.6379 42.9743 34.1659 45.4123 34.7133 47.8461C34.9066 48.706 35.4788 48.4412 36.0969 48.3249C36.2053 45.6504 36.3101 43.0618 36.4164 40.4387C35.272 40.4387 34.2164 40.4387 33.0803 40.4387ZM37.7858 40.0962C37.7858 42.8079 37.7858 45.4346 37.7858 48.1086C38.2188 48.1086 38.6866 48.1086 38.9864 48.1086C39.3206 45.3157 39.6381 42.6619 39.9705 39.8848C39.2583 39.9538 38.6028 40.0171 37.7858 40.0962ZM35.885 54.4987C35.9848 56.6412 36.0799 58.6802 36.18 60.8284C36.8615 60.6515 37.3302 60.5298 37.7677 60.4162C38.1002 58.3649 38.4802 56.4452 38.1062 54.4987C37.2596 54.4987 36.5481 54.4987 35.885 54.4987V54.4987ZM29.857 54.787C30.4155 57.0735 30.9093 59.0956 31.4217 61.1936C31.9033 61.1256 32.3237 61.0664 32.8072 60.9981C32.6041 58.8244 32.5408 56.7455 32.06 54.6142C31.2884 54.6746 30.6833 54.7221 29.857 54.787V54.787ZM32.806 54.7004C33.1885 56.8916 33.5516 58.9722 33.9351 61.1691C34.4574 60.9803 34.7661 60.8685 35.0283 60.7738C35.0283 58.7332 35.0283 56.7568 35.0283 54.7006C34.2317 54.7004 33.5744 54.7004 32.806 54.7004V54.7004ZM38.9689 54.4023C39.0697 56.4119 39.16 58.2138 39.2504 60.0159C39.4007 60.0213 39.5511 60.0265 39.7015 60.0318C40.2428 58.1455 40.1676 56.1703 40.4233 54.103C39.8555 54.2199 39.434 54.3066 38.9689 54.4023V54.4023Z" fill="#555E58"/>
<path d="M50.0059 41.2783C50.5339 37.7171 52.42 35.7271 55.0088 35.8109C57.8783 35.9038 59.8033 38.1529 60.131 41.9575C60.605 41.9575 61.0971 41.9411 61.5879 41.9604C63.312 42.0288 64.4466 43.1756 64.4969 44.8857C64.5305 46.025 64.3045 46.3555 63.1654 46.3854C60.6612 46.4511 58.1547 46.4286 55.6492 46.4579C52.9844 46.4891 50.3311 46.2263 47.6465 46.6244C46.4677 46.7994 45.1021 46.1865 43.9175 45.6981C43.0241 45.3295 43.0234 44.2507 43.8539 43.3946C45.0383 42.1739 46.5035 41.4389 48.2173 41.2862C48.7757 41.2364 49.3424 41.2783 50.0059 41.2783V41.2783ZM51.2523 42.5796C47.7967 41.633 44.9973 42.6096 44.3718 44.8468C45.2093 45.3718 46.1254 45.5137 47.1188 45.4456C48.88 45.3249 50.645 45.1784 52.4078 45.1851C54.2292 45.1919 56.0492 45.4258 57.8714 45.4535C59.6137 45.4801 61.3581 45.3696 63.0758 45.3199C63.1523 43.4719 62.81 42.9728 61.4324 43.0024C60.7227 43.0176 60.0227 43.3354 59.3106 43.4775C59.0243 43.5346 58.7171 43.4869 58.2523 43.4869C58.4753 42.8502 58.6539 42.3925 58.7963 41.9237C59.313 40.2243 58.6119 38.9074 57.3983 37.8162C56.2967 36.8256 54.9989 36.4645 53.5995 37.1239C52.0864 37.8372 51.1955 39.0062 51.2496 40.7633C51.2666 41.3144 51.2523 41.8666 51.2523 42.5796V42.5796Z" fill="#555E58"/>
<path d="M7.08139 48.8103C6.80723 46.724 6.35877 44.818 7.69084 43.1729C8.39845 42.299 9.33391 41.7985 10.4301 41.5436C12.9205 40.9643 14.8528 42.2083 16.5732 45.5776C16.9386 45.4605 17.313 45.3382 17.6889 45.2206C19.6405 44.6093 21.2119 45.4819 22.4875 46.7425C23.8276 48.0666 23.7335 49.8685 23.3656 51.5851C23.1567 52.5605 22.2686 52.6293 21.4512 52.6759C19.3478 52.7961 17.2443 52.9161 15.1402 53.022C12.7492 53.1423 10.3567 53.2352 7.96624 53.3674C7.40508 53.3982 6.82117 53.4573 6.29747 53.6435C4.81431 54.1709 3.37155 53.914 1.92555 53.539C1.22259 53.3567 0.663446 52.9787 0.525827 52.2048C0.388053 51.4299 0.81314 50.9056 1.37569 50.4591C2.62216 49.4695 4.08411 49.0283 5.62811 48.8184C6.01387 48.7657 6.41264 48.8103 7.08139 48.8103V48.8103ZM8.31934 50.0116C7.88729 50.0509 7.63573 50.1552 7.47366 50.0761C5.41061 49.0705 3.74107 50.1449 2.07679 51.1145C1.79892 51.2763 1.52337 51.7941 1.58142 52.0791C1.63653 52.3492 2.11828 52.696 2.43454 52.7204C3.6697 52.8157 4.91865 52.8785 6.1535 52.805C10.6966 52.5344 15.2331 52.1444 19.7781 51.9212C22.1232 51.8062 22.8553 51.0045 22.3283 48.7218C21.9769 47.2001 20.7976 46.4197 19.5275 45.9684C18.4036 45.5691 17.3106 46.068 16.5064 47.0449C16.3294 47.26 15.992 47.3429 15.5167 47.6022C15.5167 46.9315 15.5737 46.4921 15.5032 46.0743C15.4011 45.4686 15.3407 44.7935 15.0269 44.2967C14.0404 42.7345 11.6573 42.001 10.0341 42.6509C8.30711 43.3422 7.50833 44.8638 7.80184 46.9692C7.93435 47.92 8.12197 48.8631 8.31934 50.0116Z" fill="#555E58"/>
<path d="M50.1805 11.8144C50.2735 14.1685 49.4359 16.277 48.4123 18.3223C47.8035 19.5387 46.8154 20.3903 45.5165 20.8147C44.0537 21.2926 42.861 20.461 42.8354 18.924C42.8254 18.3105 42.9388 17.6724 43.1183 17.0828C43.6455 15.3512 43.4706 13.7197 42.5795 12.1548C42.5234 12.0559 42.465 11.9582 42.4145 11.8563C41.1182 9.23632 42.3498 7.05144 45.3392 6.70531C47.8896 6.40994 49.9279 8.05131 50.1762 10.7916C50.207 11.1299 50.1805 11.4734 50.1805 11.8144ZM49.4441 11.9101C49.4441 11.5043 49.4456 11.2765 49.4439 11.0484C49.4285 8.98539 48.5343 7.82855 46.5669 7.46988C45.0321 7.19015 43.7536 7.80425 42.7554 8.92114C41.8382 9.94764 42.7729 10.8207 43.1458 11.7246C43.1673 11.7768 43.2012 11.824 43.23 11.8731C44.2299 13.5782 44.5686 15.3488 43.8793 17.2723C43.6927 17.7929 43.628 18.3912 43.6556 18.9464C43.6981 19.802 44.2398 20.2251 45.0394 19.9827C46.192 19.6331 47.2879 19.1245 47.8541 17.9396C48.7925 15.9761 49.626 13.9835 49.4441 11.9101V11.9101Z" fill="#555E58"/>
<path d="M18.1276 18.5681C16.3015 20.8731 14.4755 23.1784 12.6496 25.4834C13.6488 22.5379 15.9556 20.5836 18.1276 18.5681Z" fill="#555E58"/>
<path d="M15.3179 27.597C15.4885 26.1479 17.8271 23.135 20.1796 21.3933C18.5592 23.4613 16.9386 25.5292 15.3179 27.597V27.597Z" fill="#555E58"/>
<path d="M25.5748 26.7573C23.8427 28.715 22.2496 30.5156 20.4374 32.5636C20.9779 30.7484 23.994 27.3854 25.5748 26.7573V26.7573Z" fill="#555E58"/>
<path d="M23.7889 25.1853C22.1472 27.0821 20.5055 28.9789 18.7919 30.9587C18.993 29.5102 21.3605 26.6579 23.7889 25.1853V25.1853Z" fill="#555E58"/>
<path d="M22.465 33.3036C23.6589 31.6339 25.1256 30.2141 26.8803 29.0498C25.521 30.5577 24.1618 32.0657 22.8025 33.5734C22.69 33.4836 22.5774 33.3937 22.465 33.3036V33.3036Z" fill="#555E58"/>
<path d="M28.6012 34.0489C28.1318 34.5596 27.6625 35.0701 27.1931 35.5808C27.0941 35.4909 26.9951 35.4011 26.8961 35.3113C27.3585 34.7944 27.8208 34.2775 28.2832 33.7605C28.3893 33.8568 28.4953 33.9528 28.6012 34.0489V34.0489Z" fill="#555E58"/>
<path d="M13.1591 9.48481C12.8126 9.7972 12.4662 10.1097 12.1197 10.4221C12.0625 10.3632 12.0053 10.3042 11.9481 10.245C12.3043 9.91268 12.6606 9.58032 13.0168 9.2478C13.0642 9.32691 13.1117 9.40586 13.1591 9.48481V9.48481Z" fill="#555E58"/>
<path d="M11.2539 14.2188C11.5103 13.938 11.7666 13.657 12.0228 13.3762C12.0649 13.4131 12.107 13.4498 12.1491 13.4866C11.9001 13.7741 11.651 14.0615 11.4017 14.3488C11.3525 14.3055 11.3033 14.2622 11.2539 14.2188Z" fill="#555E58"/>
<path d="M9.19257 16.6112C9.49799 16.239 9.80342 15.867 10.1087 15.4949C10.1691 15.537 10.2293 15.5791 10.2896 15.6212C10.0091 16.0142 9.72849 16.4071 9.44783 16.8002C9.36285 16.7372 9.27771 16.6742 9.19257 16.6112V16.6112Z" fill="#555E58"/>
<path d="M13.1687 15.9808C13.347 15.6745 13.5255 15.3681 13.7038 15.0618C13.7839 15.1291 13.8641 15.1966 13.9441 15.2639C13.6735 15.491 13.4031 15.718 13.1318 15.9443C13.1311 15.9437 13.1687 15.9808 13.1687 15.9808Z" fill="#555E58"/>
</g>
<defs>
<clipPath id="clip0_220_509">
<rect width="64" height="64" fill="white" transform="translate(0.5)"/>
</clipPath>
</defs>
</svg>
