<svg width="229" height="108" viewBox="0 0 229 108" fill="none" xmlns="http://www.w3.org/2000/svg">
<path d="M57.5126 69.9106C57.5143 69.7897 57.5782 69.6081 57.6546 69.5071C57.7311 69.406 57.7937 69.2316 57.7937 69.1194C57.7937 69.0073 57.8789 68.8384 57.9831 68.7442C58.0872 68.6499 58.1725 68.4957 58.1725 68.4015C58.1725 68.3072 58.2577 68.1845 58.3619 68.1288C58.466 68.0731 58.5513 67.9672 58.5513 67.8935C58.5513 67.8198 58.6068 67.7255 58.6747 67.6838C58.7426 67.6422 58.945 67.3984 59.1245 67.1422C59.304 66.8859 59.5892 66.5237 59.7582 66.3375C59.9273 66.1512 60.066 65.9562 60.0666 65.9041C60.0672 65.852 60.1367 65.6816 60.221 65.5254C60.3277 65.328 60.3977 64.8353 60.4509 63.9085C60.5155 62.7816 60.5606 62.5182 60.7423 62.2045C60.8606 62.0004 61.0126 61.7993 61.0801 61.7577C61.1476 61.716 61.2029 61.6357 61.2029 61.5792C61.2029 61.5227 61.2987 61.3836 61.4159 61.2703C61.7566 60.9407 62.2434 60.356 62.3574 60.1395C62.4151 60.0297 62.5092 59.9097 62.5665 59.8727C62.6323 59.8302 62.6882 59.2143 62.7181 58.2021C62.7562 56.9089 62.795 56.565 62.9186 56.4234C63.0894 56.2276 63.2053 55.3334 63.1065 54.9731C63.0609 54.8068 62.9537 54.7214 62.7343 54.6766C62.5649 54.6419 62.35 54.5446 62.2569 54.4604C62.1638 54.3762 61.9966 54.3072 61.8853 54.3072C61.7741 54.3072 61.6374 54.222 61.5817 54.1179C61.5259 54.0138 61.4411 53.9286 61.3931 53.9286C61.2882 53.9286 60.6471 53.5174 60.4373 53.3155C60.2481 53.1334 60.0283 53.1311 59.8801 53.3096C59.8169 53.3857 59.6732 53.4759 59.5607 53.5101C59.4482 53.5443 59.2813 53.638 59.1898 53.7184C58.9942 53.8901 58.7166 54.057 58.2908 54.2587C58.1216 54.3389 57.9831 54.4423 57.9831 54.4886C57.9831 54.5349 57.8539 54.6177 57.6961 54.6727C57.5383 54.7277 57.3397 54.8422 57.2548 54.9271C57.1345 55.0473 57.004 55.0671 56.6657 55.0165C56.4267 54.9807 56.2046 54.9086 56.1722 54.8564C56.1398 54.8041 55.8202 54.7268 55.462 54.6847C55.1037 54.6425 54.6615 54.5278 54.4792 54.4299C54.0113 54.1785 52.5564 53.0963 52.4637 52.9307C52.4211 52.8547 52.3232 52.7926 52.246 52.7926C52.1689 52.7926 52.0827 52.7326 52.0545 52.6592C52.0264 52.5859 51.8816 52.4755 51.7329 52.4139C51.5841 52.3523 51.4393 52.2419 51.4112 52.1685C51.383 52.0952 51.2962 52.0352 51.2183 52.0352C51.1404 52.0352 51.0281 51.9446 50.9688 51.8339C50.8707 51.6507 50.8023 51.6367 50.2093 51.6791C49.8508 51.7048 49.4993 51.7741 49.428 51.8332C49.3568 51.8923 48.9688 51.9685 48.5658 52.0025C48.1152 52.0406 47.8154 52.1102 47.7874 52.1833C47.7623 52.2487 47.6462 52.3261 47.5293 52.3554C47.4125 52.3847 47.2173 52.4951 47.0955 52.6007C46.9738 52.7062 46.7669 52.7926 46.6357 52.7926C46.5045 52.7926 46.3148 52.8671 46.2141 52.9582C46.0546 53.1025 45.8203 53.1239 44.3982 53.1239C43.1712 53.1239 42.7274 53.0923 42.6123 52.9968C42.528 52.9269 42.1774 52.8348 41.8331 52.7921C41.4888 52.7494 41.1323 52.6469 41.0409 52.5642C40.9496 52.4815 40.798 52.4139 40.704 52.4139C40.6101 52.4139 40.4004 52.3322 40.238 52.2324C39.8324 51.9832 39.0753 51.8622 38.4642 51.9489C38.1836 51.9888 37.6758 52.0245 37.3359 52.0283C36.9415 52.0328 36.6421 52.0882 36.5088 52.1815C36.3939 52.2619 36.0817 52.3536 35.815 52.3852C35.4973 52.4228 35.233 52.5243 35.0483 52.6797C34.7755 52.9092 34.7685 52.9354 34.8315 53.4937C34.8673 53.811 34.9529 54.1346 35.0219 54.2128C35.0908 54.291 35.1949 54.4614 35.2533 54.5914C35.3117 54.7215 35.463 54.9983 35.5895 55.2066C35.9468 55.7949 35.9474 55.7987 35.7374 56.0935C35.6284 56.2466 35.5392 56.414 35.5392 56.4655C35.5392 56.5169 35.4752 56.5836 35.3971 56.6135C35.319 56.6435 35.2551 56.7275 35.2551 56.8002C35.2551 56.8729 35.176 57.034 35.0794 57.1582C34.9828 57.2824 34.8751 57.5395 34.8401 57.7295C34.8052 57.9195 34.7138 58.1271 34.637 58.1907C34.5603 58.2544 34.4969 58.3971 34.4962 58.5079C34.4928 59.0239 34.4005 59.1354 33.9764 59.1354C33.754 59.1354 33.45 59.0717 33.3009 58.9939C32.9275 58.7993 26.8178 58.7807 26.6204 58.9737C26.5516 59.041 26.3568 59.1526 26.1875 59.2218C26.0183 59.2911 25.8798 59.3862 25.8798 59.4332C25.8798 59.4802 25.7732 59.5592 25.643 59.6087C25.5128 59.6582 25.4063 59.7636 25.4063 59.843C25.4063 59.9224 25.3659 59.9874 25.3166 59.9874C25.2673 59.9874 25.0655 60.2323 24.8682 60.5317C24.6709 60.8311 24.3703 61.2089 24.2002 61.3712C24.0302 61.5336 23.8911 61.698 23.8911 61.7366C23.8911 61.914 22.7576 63.0168 22.5752 63.0168C22.5173 63.0168 22.3109 63.102 22.1165 63.2061C21.9221 63.3102 21.6718 63.3954 21.5602 63.3954C21.4486 63.3954 21.3057 63.4577 21.2425 63.5338C21.1793 63.6099 21.0356 63.7001 20.9231 63.7343C20.8106 63.7685 20.6437 63.8622 20.5522 63.9426C20.3566 64.1143 20.079 64.2812 19.6532 64.4829C19.484 64.5631 19.3455 64.6701 19.3455 64.7208C19.3455 64.7715 19.207 64.8785 19.0377 64.9587C18.5877 65.1719 18.3571 65.3166 18.1713 65.5024C18.0804 65.5932 17.9483 65.6675 17.8776 65.6675C17.8069 65.6675 17.6928 65.7207 17.6239 65.7858C17.5551 65.8509 17.307 66.0312 17.0727 66.1866C16.4799 66.5795 15.6199 67.272 15.5291 67.4295C15.4874 67.5017 15.3915 67.5608 15.316 67.5608C15.2405 67.5608 15.1787 67.5977 15.1787 67.6428C15.1787 67.6879 14.9762 67.8801 14.7288 68.0698C14.0312 68.6047 13.5475 69.0082 13.3246 69.2412C13.1162 69.4591 12.8112 69.5294 12.8112 69.3595C12.8112 69.3075 12.8518 69.2648 12.9014 69.2648C12.951 69.2648 13.0315 69.1205 13.0803 68.944C13.129 68.7676 13.2482 68.5409 13.3451 68.4402C13.4421 68.3395 13.6334 68.1324 13.7702 67.9799C13.907 67.8275 14.2807 67.4685 14.6007 67.1821C14.9206 66.8958 15.4385 66.4179 15.7515 66.1203C16.0644 65.8227 16.3778 65.5458 16.4478 65.505C16.5933 65.4201 17.6725 64.4875 17.966 64.193C18.0736 64.085 18.2363 63.9692 18.3274 63.9357C18.4186 63.9021 18.4932 63.8359 18.4932 63.7885C18.4932 63.7412 18.6179 63.6507 18.7705 63.5876C18.923 63.5244 19.0708 63.4127 19.0989 63.3394C19.1271 63.2661 19.2139 63.2061 19.2918 63.2061C19.3697 63.2061 19.4791 63.1209 19.5349 63.0167C19.5906 62.9126 19.6818 62.8274 19.7376 62.8274C19.8341 62.8274 19.9421 62.7479 20.8051 62.0419C21.2976 61.6389 21.8077 61.1599 21.8077 61.1004C21.8077 61.0741 21.9586 60.8878 22.143 60.6865C22.3275 60.4852 22.5028 60.2231 22.5327 60.1041C22.5626 59.9851 22.6615 59.8478 22.7526 59.7991C22.8436 59.7504 22.9426 59.5594 22.9726 59.3746C23.0026 59.1899 23.0937 58.9722 23.175 58.8909C23.2563 58.8096 23.3229 58.6397 23.3229 58.5132C23.3229 58.2557 23.625 57.9046 23.8467 57.9046C23.9264 57.9046 24.0154 57.8428 24.0445 57.7672C24.0735 57.6916 24.2426 57.5818 24.4203 57.5232C24.598 57.4646 24.7434 57.3815 24.7434 57.3385C24.7434 57.2956 24.8712 57.2159 25.0275 57.1615C25.1837 57.107 25.3116 57.021 25.3116 56.9704C25.3116 56.9198 25.4398 56.8502 25.5964 56.8158C25.7531 56.7814 25.9251 56.6715 25.9786 56.5716C26.0321 56.4717 26.153 56.3899 26.2474 56.3899C26.3418 56.3899 26.5172 56.3047 26.6374 56.2006C26.7575 56.0965 26.9279 56.0113 27.0162 56.0113C27.1044 56.0113 27.2748 55.9261 27.395 55.8219C27.5151 55.7178 27.6855 55.6326 27.7738 55.6326C27.862 55.6326 28.0324 55.5474 28.1526 55.4433C28.2727 55.3391 28.4431 55.2539 28.5314 55.2539C28.6196 55.2539 28.79 55.1687 28.9102 55.0646C29.0303 54.9605 29.2007 54.8753 29.289 54.8753C29.3772 54.8753 29.5476 54.7901 29.6678 54.6859C29.7879 54.5818 29.9299 54.4966 29.9834 54.4966C30.0762 54.4966 31.2777 53.2999 31.2777 53.2075C31.2777 53.183 31.7343 52.7093 32.2924 52.1548C33.3278 51.1259 33.9292 50.7103 34.3841 50.7092C34.5246 50.7092 34.7674 50.624 34.9236 50.5205C35.0799 50.4171 35.341 50.3321 35.5039 50.3318C35.6668 50.3318 35.8522 50.2684 35.9159 50.1917C35.9796 50.1149 36.1752 50.0253 36.3506 49.9924C36.5261 49.9595 36.7627 49.8518 36.8765 49.7532C36.9902 49.6545 37.1803 49.5738 37.2988 49.5738C37.4174 49.5738 37.5788 49.5094 37.6576 49.4306C37.7365 49.3517 37.9303 49.2614 38.0884 49.2298C38.2465 49.1982 38.4247 49.1136 38.4843 49.0417C38.6241 48.8734 39.1789 48.8736 39.4489 49.0417C39.5642 49.1137 39.9649 49.1962 40.3394 49.2251C40.7138 49.2539 41.1186 49.3391 41.239 49.4144C41.3594 49.4897 41.7738 49.5757 42.16 49.6055C42.5461 49.6354 42.8925 49.7091 42.9298 49.7694C42.9671 49.8297 43.3429 49.9139 43.7649 49.9564C44.1898 49.9992 44.6268 50.1 44.7444 50.1823C45.0456 50.3932 46.9251 50.3925 47.3293 50.1814C47.4856 50.0998 47.8191 50.0086 48.0705 49.9786C48.3219 49.9487 48.5821 49.8698 48.6488 49.8031C48.7154 49.7365 48.9256 49.6528 49.1158 49.6172C49.3061 49.5815 49.5639 49.4719 49.6889 49.3737C49.8138 49.2756 49.9666 49.1952 50.0283 49.1952C50.09 49.1952 50.2488 49.11 50.3812 49.0059C50.5136 48.9018 50.675 48.8166 50.7397 48.8166C50.8044 48.8166 50.9081 48.7554 50.9702 48.6807C51.0323 48.6059 51.2108 48.5167 51.367 48.4824C51.5232 48.4481 51.6729 48.3628 51.6998 48.2928C51.7267 48.2227 51.863 48.1404 52.0027 48.1097C52.1424 48.079 52.408 47.9153 52.593 47.746C52.7779 47.5766 53.1608 47.2841 53.4438 47.0959C53.7268 46.9078 54.0778 46.6428 54.2238 46.507C54.3699 46.3712 54.6043 46.2004 54.7447 46.1274C54.8851 46.0544 55.1279 45.864 55.2841 45.7042C55.4404 45.5445 55.6108 45.4122 55.6629 45.4102C55.715 45.4082 55.9068 45.2371 56.0891 45.0298C56.2714 44.8226 56.4595 44.6526 56.5073 44.6521C56.555 44.6512 56.6615 44.5875 56.744 44.5097C57.0253 44.2443 57.4619 43.9262 57.6279 43.8656C57.7191 43.8323 57.7937 43.7659 57.7937 43.718C57.7937 43.6701 57.9512 43.6013 58.1437 43.5652C58.3363 43.5291 58.5977 43.4179 58.7247 43.318C58.8517 43.2182 59.0123 43.1365 59.0815 43.1365C59.1508 43.1365 59.2531 43.0513 59.3089 42.9471C59.3646 42.843 59.448 42.7578 59.4941 42.7578C59.5829 42.7578 60.4453 41.9262 60.4453 41.8406C60.4453 41.813 60.7009 41.5441 61.0135 41.2431C61.326 40.9421 61.5817 40.6486 61.5817 40.5908C61.5817 40.533 61.6206 40.4858 61.6683 40.4858C61.7159 40.4858 61.9169 40.2621 62.1149 39.9887C62.3128 39.7154 62.5295 39.4577 62.5964 39.416C62.6633 39.3744 62.7181 39.2984 62.7181 39.2471C62.7181 39.1213 63.9581 37.8882 64.1642 37.8091C64.2543 37.7746 64.328 37.7024 64.328 37.6487C64.328 37.595 64.3886 37.551 64.4627 37.551C64.5369 37.551 64.7241 37.4445 64.8789 37.3144C65.0336 37.1842 65.2074 37.0777 65.265 37.0777C65.3225 37.0777 65.3697 37.0362 65.3697 36.9855C65.3697 36.9347 65.5082 36.8224 65.6774 36.736C65.8467 36.6495 66.0193 36.5206 66.0609 36.4495C66.1026 36.3785 66.1809 36.3203 66.2349 36.3203C66.4551 36.3203 68.4001 34.1282 68.4001 33.88C68.4001 33.8325 68.4829 33.7187 68.5841 33.6272C68.6853 33.5356 68.7944 33.3408 68.8266 33.1944C68.8588 33.0479 68.9424 32.9061 69.0125 32.8793C69.0825 32.8524 69.1677 32.7033 69.2019 32.5479C69.236 32.3925 69.3199 32.244 69.3882 32.2177C69.4566 32.1915 69.5423 32.0114 69.5787 31.8176C69.6151 31.6237 69.7057 31.4042 69.7801 31.3299C69.8544 31.2556 69.9159 31.0167 69.9167 30.7991C69.9175 30.5816 69.9795 30.2971 70.0546 30.1669C70.1298 30.0367 70.2346 29.8344 70.2877 29.7172C70.3407 29.6001 70.4491 29.5042 70.5285 29.5042C70.6079 29.5042 70.6729 29.4704 70.6729 29.429C70.6729 29.3876 70.8966 29.1859 71.17 28.9807C71.4435 28.7754 71.7013 28.5537 71.7429 28.4879C71.8578 28.3064 72.2321 28.3447 72.4248 28.5575C72.5191 28.6617 72.6732 28.7469 72.7672 28.7469C72.8613 28.7469 73.0145 28.8286 73.1077 28.9285C73.2009 29.0284 73.3912 29.1388 73.5307 29.1737C73.6701 29.2087 73.8073 29.2974 73.8355 29.3708C73.8637 29.4442 73.9339 29.5042 73.9917 29.5042C74.0494 29.5042 74.2242 29.6317 74.3801 29.7876C74.5359 29.9434 74.8842 30.2182 75.154 30.3982C75.4239 30.5783 75.7938 30.8656 75.9761 31.0367C76.1584 31.2079 76.3765 31.3911 76.4607 31.4438C76.8765 31.7038 77.1671 31.9254 77.2355 32.0343C77.2772 32.1007 77.3716 32.1549 77.4453 32.1549C77.519 32.1549 77.6249 32.2401 77.6807 32.3443C77.7364 32.4484 77.8302 32.5336 77.8891 32.5336C77.948 32.5336 78.0637 32.5985 78.1462 32.6778C78.2287 32.7571 78.4667 32.9483 78.675 33.1027C78.8833 33.257 79.1159 33.4371 79.1918 33.5028C79.2677 33.5685 79.5873 33.8222 79.902 34.0664C80.2168 34.3107 80.5489 34.5769 80.64 34.6581C80.7312 34.7393 80.8469 34.8057 80.8971 34.8057C80.9474 34.8057 81.0341 34.8909 81.0899 34.995C81.1456 35.0991 81.2515 35.1843 81.3252 35.1843C81.3989 35.1843 81.4933 35.2382 81.535 35.304C81.5766 35.3698 81.8344 35.5916 82.1079 35.7968C82.3813 36.002 82.6051 36.2038 82.6051 36.2451C82.6051 36.2865 82.6583 36.3208 82.7234 36.3213C82.7885 36.3221 82.991 36.4918 83.1733 36.699C83.3556 36.9063 83.558 37.0763 83.6231 37.0768C83.6882 37.0776 83.7415 37.1146 83.7415 37.1597C83.7415 37.2048 83.9439 37.395 84.1913 37.5824C84.4387 37.7698 84.7054 37.9851 84.7839 38.0609C84.8625 38.1366 85.0419 38.2275 85.1825 38.2628C85.3232 38.2981 85.4879 38.3867 85.5485 38.4597C85.6091 38.5327 85.7755 38.5924 85.9184 38.5924C86.0612 38.5924 86.2797 38.6711 86.404 38.7672C86.5282 38.8634 86.7949 38.9681 86.9967 38.9999C87.1985 39.0316 87.4362 39.1234 87.525 39.2037C87.6138 39.284 87.7972 39.3497 87.9326 39.3497C88.068 39.3497 88.2488 39.4197 88.3344 39.5052C88.4199 39.5907 88.6808 39.6963 88.9141 39.7399C89.1475 39.7835 89.3973 39.878 89.4693 39.95C89.5412 40.022 89.7679 40.1077 89.973 40.1405C90.1781 40.1732 90.3992 40.2643 90.4644 40.3429C90.5297 40.4215 90.6999 40.4858 90.8428 40.4858C90.9856 40.4858 91.2041 40.5644 91.3284 40.6606C91.4526 40.7568 91.7193 40.8614 91.9211 40.8932C92.1228 40.925 92.3606 41.0167 92.4494 41.0971C92.5382 41.1774 92.6763 41.2431 92.7563 41.2431C92.8363 41.2431 93.0068 41.3257 93.1351 41.4266C93.2635 41.5275 93.4823 41.6386 93.6214 41.6735C93.7605 41.7084 93.8744 41.7716 93.8744 41.814C93.8744 41.8564 94.0201 41.9392 94.1982 41.9979C94.3764 42.0567 94.5733 42.1665 94.636 42.242C94.6986 42.3174 94.8241 42.3791 94.9149 42.3791C95.0056 42.3791 95.1883 42.4643 95.3207 42.5685C95.4531 42.6726 95.6061 42.7578 95.6607 42.7578C95.7674 42.7578 96.3877 43.144 96.6207 43.3554C96.6988 43.4263 96.8373 43.5113 96.9284 43.5441C97.0196 43.577 97.0942 43.6426 97.0942 43.69C97.0942 43.7374 97.222 43.8291 97.3783 43.8938C97.5345 43.9585 97.6624 44.0502 97.6624 44.0976C97.6624 44.145 97.7369 44.2115 97.8281 44.2454C97.9192 44.2793 98.2282 44.5452 98.5147 44.8363C99.3678 45.7032 99.6824 45.7399 100.397 45.056C100.574 44.8875 100.851 44.7248 101.013 44.6944C101.175 44.6639 102.366 44.6528 103.659 44.6697C105.776 44.6973 106.02 44.7168 106.103 44.8651C106.153 44.9557 106.272 45.0298 106.367 45.0298C106.461 45.0298 106.647 45.115 106.779 45.2192C106.912 45.3233 107.049 45.4085 107.085 45.4085C107.121 45.4085 107.258 45.4937 107.391 45.5978C107.569 45.7383 107.775 45.7872 108.187 45.7872C108.562 45.7872 108.858 45.7255 109.096 45.5978C109.291 45.4937 109.578 45.4082 109.735 45.4079C109.892 45.4079 110.149 45.3226 110.305 45.2192C110.485 45.0999 110.749 45.0309 111.027 45.0305C111.285 45.0305 111.51 44.9757 111.575 44.8984C111.635 44.826 111.868 44.7204 112.094 44.6637C112.319 44.6069 112.558 44.4956 112.623 44.4165C112.689 44.3373 112.817 44.2725 112.908 44.2725C112.999 44.2725 113.181 44.1873 113.314 44.0832C113.446 43.979 113.583 43.8938 113.618 43.8938C113.71 43.8938 114.235 43.3546 114.235 43.2595C114.235 43.215 114.32 43.1056 114.424 43.0164C114.528 42.9273 114.614 42.7674 114.614 42.6611C114.614 42.5548 114.688 42.4414 114.779 42.4091C114.871 42.3768 115.009 42.2969 115.087 42.2315C115.165 42.1662 115.406 42.0657 115.622 42.0082C115.838 41.9508 116.039 41.8403 116.069 41.7627C116.099 41.6852 116.18 41.6218 116.25 41.6218C116.32 41.6218 116.6 41.3981 116.873 41.1248C117.56 40.4355 117.644 40.3401 117.646 40.2411C117.649 40.0392 118.118 39.731 118.506 39.6754C119.375 39.551 119.995 39.1339 120.536 38.3084C120.69 38.0741 120.864 37.851 120.924 37.8127C120.983 37.7744 121.059 37.5975 121.092 37.4195C121.126 37.2416 121.21 37.074 121.281 37.0471C121.351 37.0202 121.436 36.8498 121.47 36.6684C121.504 36.487 121.595 36.3146 121.671 36.2851C121.748 36.2557 121.811 36.1295 121.811 36.0047C121.811 35.88 121.896 35.6696 122 35.5372C122.104 35.4048 122.19 35.2139 122.19 35.1129C122.19 35.0119 122.275 34.831 122.379 34.711C122.483 34.5909 122.568 34.4392 122.568 34.3739C122.568 34.2251 123.045 33.2869 123.206 33.1185C123.272 33.0497 123.326 32.9553 123.326 32.9088C123.326 32.8622 123.455 32.6924 123.612 32.5314C123.892 32.2458 123.928 32.2367 125.079 32.1621C125.728 32.12 126.318 32.0367 126.39 31.9771C126.462 31.9174 127.08 31.8321 127.763 31.7876C128.447 31.743 129.06 31.6658 129.125 31.616C129.191 31.5662 129.422 31.475 129.637 31.4133C129.853 31.3516 130.055 31.2377 130.084 31.1601C130.114 31.0824 130.202 31.0189 130.28 31.0189C130.358 31.0189 130.468 30.9337 130.523 30.8296C130.579 30.7254 130.664 30.6402 130.712 30.6402C130.805 30.6402 131.281 30.1931 131.281 30.1049C131.281 30.0755 131.537 29.8052 131.849 29.5042C132.162 29.2032 132.417 28.9118 132.417 28.8566C132.417 28.8014 132.475 28.7222 132.546 28.6806C132.618 28.6389 132.746 28.4664 132.833 28.2972C132.92 28.128 133.027 27.9895 133.072 27.9895C133.116 27.9895 133.178 27.915 133.209 27.8239C133.24 27.7327 133.412 27.4665 133.592 27.2322C133.773 26.9979 133.923 26.7544 133.926 26.6912C133.93 26.6279 134.018 26.5306 134.122 26.4748C134.226 26.4191 134.311 26.3132 134.311 26.2395C134.311 26.1659 134.369 26.0715 134.439 26.0299C134.51 25.9882 134.622 25.8477 134.689 25.7175C134.755 25.5873 134.947 25.3104 135.115 25.1021C135.283 24.8939 135.451 24.6276 135.488 24.5105C135.525 24.3933 135.596 24.2975 135.646 24.2975C135.697 24.2975 135.765 24.2229 135.798 24.1318C135.831 24.0407 135.958 23.8457 136.079 23.6985C136.201 23.5513 136.3 23.3748 136.3 23.3063C136.3 23.2378 136.364 23.1572 136.442 23.1272C136.52 23.0972 136.584 23.0141 136.584 22.9424C136.584 22.8707 136.669 22.735 136.773 22.6408C136.878 22.5465 136.963 22.4117 136.963 22.3412C136.963 22.2706 137.048 22.1399 137.152 22.0508C137.256 21.9616 137.342 21.8408 137.342 21.7824C137.342 21.7239 137.427 21.599 137.531 21.5047C137.635 21.4105 137.72 21.2757 137.72 21.2051C137.72 21.1346 137.806 21.0039 137.91 20.9148C138.014 20.8256 138.099 20.7048 138.099 20.6464C138.099 20.5879 138.184 20.463 138.289 20.3687C138.393 20.2745 138.478 20.1439 138.478 20.0785C138.478 20.0132 138.643 19.7511 138.845 19.496C139.046 19.241 139.24 18.9429 139.274 18.8336C139.309 18.7243 139.4 18.6109 139.476 18.5817C139.552 18.5525 139.614 18.4649 139.614 18.387C139.614 18.3091 139.7 18.1997 139.804 18.144C139.908 18.0883 139.993 18.0037 139.993 17.9561C139.993 17.7931 140.584 16.9948 141.046 16.5324C141.3 16.2783 141.508 16.0278 141.508 15.9759C141.508 15.9239 141.564 15.8473 141.632 15.8057C141.7 15.764 141.902 15.5383 142.082 15.304C142.261 15.0697 142.461 14.8439 142.526 14.8022C142.592 14.7606 142.645 14.6754 142.646 14.6129C142.647 14.5504 142.816 14.3502 143.024 14.1679C143.231 13.9857 143.401 13.808 143.402 13.7731C143.402 13.7381 143.605 13.5056 143.852 13.2564C144.404 12.7003 144.782 12.6586 145.353 13.0905C145.751 13.391 146.243 13.8784 146.243 13.9715C146.243 14.0042 146.413 14.2003 146.619 14.4072C146.826 14.614 146.996 14.8184 146.998 14.8613C147.004 15.0119 148.946 17.008 149.087 17.008C149.136 17.008 149.24 17.1464 149.318 17.3157C149.47 17.6452 149.602 17.866 149.866 18.2267C149.957 18.3515 150.031 18.5343 150.031 18.6331C150.031 18.7318 150.093 18.8364 150.169 18.8654C150.245 18.8944 150.354 19.0634 150.413 19.2411C150.472 19.4187 150.552 19.564 150.593 19.564C150.633 19.564 150.735 19.7238 150.819 19.919C150.976 20.2843 151.094 20.4841 151.381 20.8774C151.472 21.0022 151.547 21.1851 151.547 21.2838C151.547 21.3826 151.609 21.4871 151.684 21.5161C151.76 21.5451 151.87 21.7142 151.928 21.8918C151.987 22.0694 152.068 22.2148 152.108 22.2148C152.148 22.2148 152.25 22.3745 152.334 22.5698C152.492 22.935 152.609 23.1348 152.896 23.5281C152.987 23.6529 153.062 23.825 153.062 23.9105C153.062 23.9961 153.147 24.139 153.251 24.2282C153.355 24.3173 153.441 24.4707 153.441 24.5689C153.441 24.6672 153.507 24.8027 153.588 24.87C153.669 24.9373 153.797 25.1236 153.872 25.2839C153.947 25.4443 154.094 25.7033 154.198 25.8595C154.303 26.0157 154.45 26.2713 154.526 26.4275C154.682 26.7472 154.82 26.8849 155.761 27.6534C156.125 27.9514 156.438 28.2341 156.455 28.2817C156.473 28.3293 156.537 28.3686 156.597 28.3691C156.658 28.3697 156.857 28.5396 157.039 28.7469C157.222 28.9541 157.413 29.1255 157.465 29.1277C157.518 29.13 157.729 29.3008 157.936 29.5073C158.143 29.7139 158.342 29.8829 158.378 29.8829C158.415 29.8829 158.622 30.0533 158.839 30.2616C159.055 30.4698 159.256 30.6402 159.285 30.6402C159.314 30.6402 159.43 30.7361 159.544 30.8532C159.657 30.9704 159.899 31.1941 160.082 31.3503C160.695 31.876 161.987 33.0504 162.502 33.5513C162.784 33.8247 163.036 34.0483 163.064 34.0483C163.091 34.0483 163.533 34.4743 164.047 34.995C164.561 35.5157 165.013 35.9417 165.052 35.9417C165.14 35.9417 174.653 45.4581 174.653 45.5466C174.653 45.582 175.08 46.0311 175.6 46.5445C176.121 47.058 176.547 47.4974 176.547 47.5211C176.547 47.5448 176.856 47.8822 177.234 48.271C177.612 48.6598 178.24 49.3331 178.631 49.7672C179.433 50.6584 180.238 51.4667 180.325 51.4685C180.357 51.4693 180.566 51.6395 180.789 51.8471C181.013 52.0548 181.226 52.226 181.263 52.2277C181.32 52.2302 181.596 52.5215 182.324 53.3477C182.402 53.4363 182.615 53.7062 182.798 53.9475C182.98 54.1888 183.236 54.4521 183.366 54.5327C183.496 54.6132 183.837 54.8931 184.123 55.1547C184.41 55.4162 184.692 55.6307 184.75 55.6314C184.808 55.6323 184.964 55.7179 185.096 55.822C185.229 55.9262 185.429 56.0114 185.54 56.0114C185.652 56.0114 185.923 56.0928 186.141 56.1924C186.469 56.3418 186.737 56.371 187.675 56.3593C188.7 56.3466 188.845 56.3658 189.154 56.5569C189.342 56.6734 189.619 56.769 189.769 56.7693C189.919 56.7693 190.164 56.8335 190.313 56.9113C190.636 57.0796 190.865 57.0914 191.01 56.9471C191.122 56.8343 191.41 56.6598 191.794 56.4702C191.924 56.406 192.106 56.2909 192.197 56.2145C192.377 56.0642 192.651 55.8978 193.025 55.7118C193.155 55.647 193.338 55.5175 193.431 55.424C193.525 55.3305 193.692 55.254 193.803 55.254C193.914 55.254 194.077 55.1883 194.166 55.108C194.255 55.0276 194.493 54.9367 194.694 54.9058C194.896 54.875 195.128 54.7917 195.211 54.7208C195.293 54.6498 195.556 54.5551 195.796 54.5104C196.035 54.4656 196.302 54.359 196.387 54.2735C196.473 54.188 196.618 54.118 196.711 54.118C196.803 54.118 196.971 54.0434 197.084 53.9523C197.196 53.8612 197.398 53.7015 197.532 53.5973C197.666 53.4932 197.868 53.334 197.981 53.2435C199.583 51.9596 199.666 51.9078 200.162 51.8716C200.62 51.8382 200.673 51.8588 201.067 52.2197C201.297 52.4307 201.51 52.6038 201.541 52.6045C201.571 52.6053 201.779 52.7755 202.002 52.9832C202.226 53.1908 202.434 53.3607 202.465 53.3607C202.496 53.3607 202.613 53.4565 202.725 53.5737C202.948 53.8066 203.431 54.2102 204.129 54.7451C204.376 54.9348 204.579 55.1269 204.579 55.172C204.579 55.2171 204.624 55.254 204.68 55.254C204.736 55.254 205.201 55.68 205.715 56.2007C206.229 56.7214 206.668 57.1474 206.692 57.1474C206.716 57.1474 207.053 57.4562 207.441 57.8337C207.83 58.2112 209.269 59.6064 210.639 60.9341C212.01 62.2618 213.449 63.657 213.837 64.0345C214.226 64.412 214.561 64.7209 214.583 64.7209C214.604 64.7209 215.006 65.1043 215.474 65.5729C216.218 66.3161 216.296 66.4249 216.091 66.4249C215.952 66.4249 215.813 66.3471 215.753 66.2355C215.698 66.1314 215.588 66.0462 215.51 66.0462C215.432 66.0462 215.345 65.9862 215.317 65.9129C215.289 65.8396 215.144 65.7291 214.996 65.6675C214.847 65.6059 214.702 65.4955 214.674 65.4222C214.646 65.3489 214.559 65.2889 214.481 65.2889C214.403 65.2889 214.294 65.2037 214.238 65.0995C214.182 64.9954 214.084 64.9102 214.019 64.9102C213.954 64.9102 213.832 64.8356 213.747 64.7445C213.663 64.6534 213.44 64.4724 213.252 64.3422C213.064 64.212 212.751 63.9655 212.556 63.7943C212.361 63.6232 211.989 63.3401 211.729 63.1653C211.468 62.9905 211.127 62.7261 210.971 62.5778C210.815 62.4295 210.618 62.2653 210.534 62.2128C210.124 61.958 209.827 61.732 209.759 61.6227C209.717 61.5564 209.623 61.5021 209.549 61.5021C209.475 61.5021 209.369 61.4169 209.314 61.3128C209.258 61.2087 209.149 61.1235 209.071 61.1235C208.993 61.1235 208.906 61.0635 208.878 60.9901C208.85 60.9168 208.702 60.8051 208.549 60.742C208.397 60.6788 208.272 60.5887 208.272 60.5416C208.272 60.4946 208.165 60.4156 208.035 60.3661C207.905 60.3166 207.798 60.2407 207.798 60.1973C207.798 60.1539 207.624 59.9931 207.412 59.8399C206.872 59.4512 205.04 58.044 204.839 57.8641C204.748 57.7823 204.632 57.7154 204.582 57.7154C204.532 57.7154 204.445 57.6302 204.389 57.5261C204.334 57.4219 204.224 57.3367 204.146 57.3367C204.068 57.3367 203.981 57.2767 203.953 57.2034C203.925 57.1301 203.777 57.0184 203.625 56.9552C203.472 56.8921 203.348 56.8016 203.348 56.7543C203.348 56.7069 203.273 56.6395 203.182 56.6045C203.091 56.5696 202.85 56.3814 202.647 56.1865C202.444 55.9915 202.167 55.8183 202.032 55.8017C201.712 55.7625 201.158 55.8766 201.084 55.997C201.052 56.0487 200.898 56.1222 200.742 56.1603C200.587 56.1984 200.358 56.3083 200.233 56.4045C200.109 56.5007 199.931 56.5794 199.836 56.5794C199.742 56.5794 199.636 56.6263 199.601 56.6837C199.565 56.7411 199.393 56.8482 199.217 56.9216C199.041 56.9951 198.897 57.0927 198.897 57.1384C198.897 57.1841 198.779 57.2508 198.636 57.2865C198.493 57.3222 198.301 57.4189 198.209 57.5014C198.017 57.6751 197.744 57.8401 197.31 58.0455C197.141 58.1257 197.003 58.2344 197.003 58.287C197.003 58.3397 196.896 58.4233 196.766 58.4727C196.636 58.5222 196.529 58.6012 196.529 58.6483C196.529 58.6953 196.404 58.7855 196.252 58.8486C196.099 58.9118 195.952 59.0234 195.923 59.0968C195.895 59.1701 195.808 59.2301 195.731 59.2301C195.653 59.2301 195.543 59.3153 195.487 59.4194C195.432 59.5236 195.348 59.6088 195.302 59.6088C195.256 59.6088 195.041 59.7792 194.825 59.9874C194.608 60.1957 194.401 60.3661 194.366 60.3661C194.331 60.3661 194.132 60.5299 193.924 60.73C193.716 60.9302 193.419 61.1253 193.263 61.1636C193.107 61.2018 192.953 61.277 192.92 61.3306C192.886 61.3842 192.652 61.4502 192.398 61.4771C192.144 61.5041 191.871 61.5827 191.792 61.6517C191.712 61.7207 191.467 61.8058 191.248 61.841C191.028 61.8761 190.756 61.9846 190.644 62.0821C190.531 62.1797 190.357 62.2595 190.256 62.2595C190.155 62.2595 189.964 62.3447 189.831 62.4488C189.699 62.553 189.488 62.6382 189.364 62.6382C189.239 62.6382 189.113 62.6995 189.084 62.7744C189.056 62.8493 188.897 62.9395 188.732 62.9747C188.567 63.01 188.356 63.1191 188.263 63.2172C188.17 63.3153 188.017 63.3955 187.922 63.3955C187.828 63.3955 187.674 63.4807 187.58 63.5848C187.486 63.689 187.337 63.7742 187.248 63.7742C187.16 63.7742 186.99 63.8594 186.87 63.9635C186.75 64.0676 186.6 64.1529 186.537 64.1529C186.473 64.1529 186.313 64.2381 186.181 64.3422C186.049 64.4463 185.871 64.5315 185.786 64.5315C185.702 64.5315 185.61 64.5916 185.581 64.665C185.553 64.7384 185.42 64.8262 185.284 64.8602C185.149 64.8941 184.933 65.0045 184.805 65.1054C184.55 65.3055 183.934 65.3572 183.934 65.1785C183.934 64.9081 182.735 63.8013 182.367 63.7323C182.195 63.7 182.037 63.6228 182.016 63.5609C181.975 63.4385 180.87 63.3208 179.643 63.3084C178.845 63.3002 177.859 63.0493 178.079 62.9102C178.148 62.8663 178.295 62.8297 178.405 62.8289C178.515 62.8281 178.714 62.7423 178.846 62.6382C178.979 62.534 179.145 62.4488 179.217 62.4488C179.288 62.4488 179.419 62.3636 179.509 62.2595C179.598 62.1553 179.728 62.0701 179.799 62.0701C179.87 62.0701 180.004 61.9849 180.099 61.8808C180.193 61.7767 180.329 61.6915 180.4 61.6915C180.472 61.6915 180.555 61.6276 180.585 61.5495C180.615 61.4714 180.696 61.4075 180.764 61.4075C180.833 61.4075 181.01 61.3066 181.157 61.1833C181.356 61.0168 181.574 60.9485 182.005 60.9178C182.379 60.8911 182.642 60.8195 182.745 60.7159C182.834 60.6277 182.944 60.5554 182.99 60.5554C183.17 60.5554 183.793 60.0562 184.46 59.3758C184.845 58.9833 185.186 58.6621 185.217 58.6621C185.33 58.6621 185.828 58.1059 185.828 57.9804C185.828 57.9099 185.748 57.7836 185.65 57.6999C185.552 57.6161 185.455 57.4962 185.434 57.4333C185.409 57.3576 185.169 57.3213 184.722 57.3255C184.188 57.3305 183.999 57.293 183.81 57.1449C183.68 57.0421 183.533 56.9581 183.485 56.9581C183.36 56.9581 182.403 56.0765 180.955 54.628C180.272 53.9452 179.566 53.3109 179.385 53.2184C179.205 53.1259 179.036 53.0184 179.01 52.9794C178.984 52.9405 178.802 52.8421 178.607 52.7608C178.412 52.6795 178.252 52.5682 178.252 52.5135C178.252 52.4587 178.206 52.414 178.149 52.414C178.092 52.414 177.866 52.2329 177.645 52.0116C177.425 51.7903 176.971 51.376 176.636 51.0909C175.959 50.515 175.674 50.2339 174.062 48.5491C173.45 47.9098 172.948 47.3569 172.948 47.3206C172.947 47.2843 172.777 47.1054 172.57 46.9232C172.363 46.741 172.193 46.5386 172.192 46.4735C172.191 46.4084 172.155 46.3552 172.11 46.3552C172.066 46.3552 171.761 46.0144 171.434 45.5978C171.106 45.1813 170.802 44.8405 170.757 44.8405C170.713 44.8405 170.676 44.7872 170.675 44.7222C170.674 44.6571 170.505 44.4547 170.297 44.2725C170.09 44.0903 169.92 43.89 169.919 43.8275C169.919 43.765 169.863 43.6798 169.795 43.6382C169.727 43.5965 169.525 43.3735 169.345 43.1426C169.166 42.9117 168.955 42.6525 168.877 42.5668C168.799 42.481 168.5 42.141 168.214 41.8111C167.927 41.4812 167.629 41.1425 167.551 41.0584C167.473 40.9743 167.294 40.7531 167.154 40.5668C167.013 40.3805 166.726 40.0483 166.514 39.8285C166.303 39.6087 166.13 39.4005 166.13 39.3657C166.129 39.3309 165.959 39.1533 165.752 38.9711C165.544 38.7888 165.374 38.6092 165.374 38.5719C165.373 38.5346 165.234 38.3636 165.065 38.1919C164.896 38.0202 164.642 37.7265 164.502 37.5392C164.362 37.3519 164.074 37.0189 163.863 36.7991C163.652 36.5794 163.478 36.3711 163.478 36.3363C163.477 36.3015 163.307 36.1239 163.1 35.9417C162.893 35.7594 162.723 35.5798 162.722 35.5425C162.721 35.5052 162.583 35.3342 162.413 35.1625C162.244 34.9908 161.994 34.7019 161.858 34.5203C161.486 34.0257 158.057 30.6201 157.513 30.2052C157.252 30.0065 157.039 29.8101 157.039 29.7688C157.039 29.7274 156.986 29.6931 156.921 29.6926C156.856 29.6921 156.653 29.5221 156.471 29.3149C156.289 29.1076 156.088 28.9377 156.026 28.9371C155.963 28.9366 155.878 28.883 155.837 28.8179C155.795 28.7528 155.569 28.5526 155.335 28.3731C155.1 28.1936 154.874 27.9912 154.833 27.9234C154.791 27.8556 154.711 27.8002 154.654 27.8002C154.598 27.8002 154.461 27.7042 154.351 27.5869C154.241 27.4697 154.043 27.2886 153.91 27.1846C153.621 26.9577 152.872 26.0235 152.872 25.8896C152.872 25.8374 152.787 25.6864 152.683 25.554C152.579 25.4216 152.494 25.2177 152.494 25.101C152.494 24.9842 152.432 24.8379 152.358 24.7759C152.283 24.7138 152.193 24.5275 152.158 24.3619C152.123 24.1963 152.014 23.928 151.915 23.7656C151.817 23.6033 151.736 23.4067 151.736 23.3287C151.736 23.2508 151.651 23.0787 151.547 22.9463C151.442 22.8139 151.357 22.5938 151.357 22.4572C151.357 22.3206 151.294 22.1847 151.218 22.1553C151.141 22.1259 151.05 21.9462 151.015 21.7559C150.98 21.5657 150.872 21.3085 150.775 21.1843C150.679 21.0601 150.6 20.8643 150.6 20.7491C150.6 20.6339 150.514 20.4415 150.41 20.3214C150.306 20.2013 150.221 20.0097 150.221 19.8956C150.221 19.7814 150.136 19.6109 150.031 19.5167C149.927 19.4225 149.842 19.2975 149.842 19.2391C149.842 19.1806 149.757 19.0598 149.653 18.9707C149.548 18.8815 149.463 18.7547 149.463 18.689C149.463 18.5482 149.025 18.1197 148.556 17.8013C148.265 17.6041 148.114 17.576 147.345 17.576C146.499 17.576 146.455 17.5865 146.142 17.8667L145.817 18.1574L145.844 19.8838C145.87 21.5052 145.859 21.6237 145.679 21.8323C145.573 21.9544 145.486 22.1122 145.486 22.1828C145.486 22.2535 145.401 22.3842 145.296 22.4734C145.192 22.5626 145.107 22.6833 145.107 22.7418C145.107 22.8003 145.022 22.9252 144.918 23.0194C144.813 23.1137 144.728 23.2679 144.728 23.3621C144.728 23.4564 144.646 23.5772 144.547 23.6307C144.447 23.6841 144.337 23.8525 144.304 24.0048C144.271 24.157 144.182 24.3052 144.107 24.3339C144.032 24.3627 143.971 24.4554 143.971 24.5399C143.971 24.6244 143.885 24.8019 143.781 24.9343C143.677 25.0667 143.592 25.2266 143.592 25.2896C143.592 25.3526 143.507 25.4812 143.402 25.5755C143.298 25.6697 143.213 25.8238 143.213 25.9178C143.213 26.0118 143.131 26.165 143.031 26.2581C142.931 26.3513 142.821 26.5416 142.786 26.681C142.751 26.8204 142.662 26.9575 142.589 26.9857C142.516 27.0139 142.455 27.1061 142.455 27.1906C142.455 27.2752 142.37 27.4526 142.266 27.585C142.162 27.7174 142.077 27.8773 142.077 27.9403C142.077 28.0033 141.994 28.1298 141.893 28.2213C141.791 28.3129 141.681 28.5112 141.648 28.662C141.615 28.8128 141.549 28.9362 141.502 28.9362C141.455 28.9362 141.35 29.0747 141.27 29.2439C141.021 29.7658 140.819 30.1125 140.687 30.2439C140.618 30.3131 140.561 30.4498 140.561 30.5476C140.561 30.6455 140.502 30.7596 140.43 30.8012C140.357 30.8428 140.229 31.026 140.145 31.2083C140.061 31.3905 139.888 31.71 139.761 31.9183C139.634 32.1265 139.485 32.396 139.43 32.5171C139.375 32.6381 139.27 32.7971 139.196 32.8704C139.053 33.0141 139.093 33.3419 139.284 33.575C139.347 33.6531 139.425 33.8235 139.456 33.9536C139.522 34.2306 140.38 35.144 140.656 35.2316C140.76 35.2647 140.846 35.3337 140.846 35.385C140.846 35.4362 140.973 35.5227 141.13 35.5772C141.286 35.6316 141.414 35.714 141.414 35.7602C141.414 35.8065 141.604 35.8922 141.837 35.9508C142.07 36.0094 142.309 36.1165 142.369 36.1889C142.43 36.2612 142.535 36.3203 142.604 36.3203C142.673 36.3203 142.785 36.4215 142.853 36.5451C143.253 37.2733 143.346 37.4163 143.463 37.4847C143.534 37.5264 143.592 37.6049 143.592 37.6591C143.592 37.7134 143.677 37.8654 143.78 37.9969C143.883 38.1284 143.948 38.2678 143.924 38.3068C143.859 38.4121 143.425 38.3068 143.299 38.1559C143.14 37.9648 141.623 37.9737 141.346 38.1673C141.234 38.2459 140.937 38.3366 140.686 38.3689C140.435 38.4011 140.097 38.5072 139.935 38.6046C139.772 38.702 139.555 38.7817 139.452 38.7817C139.349 38.7817 139.188 38.8669 139.094 38.9711C138.999 39.0752 138.829 39.1604 138.715 39.1604C138.601 39.1604 138.43 39.2456 138.336 39.3497C138.242 39.4539 138.092 39.5391 138.004 39.5391C137.916 39.5391 137.746 39.6243 137.626 39.7284C137.506 39.8325 137.31 39.9177 137.192 39.9177C137.073 39.9177 136.92 39.9734 136.851 40.0415C136.487 40.4017 135.448 40.5031 135.448 40.1785C135.448 40.1103 135.362 39.9815 135.258 39.8924C135.154 39.8032 135.069 39.6725 135.069 39.602C135.069 39.5315 134.984 39.3966 134.879 39.3024C134.775 39.2082 134.69 39.0759 134.69 39.0084C134.69 38.941 134.632 38.8517 134.561 38.8101C134.49 38.7685 134.351 38.5904 134.253 38.4143C133.985 37.934 133.897 37.7944 133.765 37.6422C133.585 37.433 133.221 36.8626 133.15 36.6753C133.115 36.5842 133.043 36.5097 132.99 36.5097C132.937 36.5097 132.828 36.3712 132.747 36.202C132.449 35.5715 131.977 34.995 131.76 34.995C131.604 34.995 131.091 35.5171 131.091 35.6755C131.091 35.7453 131.013 35.9509 130.916 36.1324C130.82 36.3139 130.718 36.7232 130.689 37.042C130.661 37.3608 130.575 37.7229 130.497 37.8467C130.419 37.9704 130.334 38.3353 130.307 38.6575C130.28 38.9796 130.19 39.3406 130.107 39.4595C130.023 39.5785 129.955 39.8556 129.955 40.0752C129.955 40.2949 129.911 40.5015 129.858 40.5345C129.805 40.5674 129.581 40.5303 129.361 40.4519C129.141 40.3736 128.499 40.2874 127.935 40.2605C127.37 40.2335 126.859 40.1705 126.798 40.1204C126.609 39.964 126.035 39.9006 125.759 40.0056C125.598 40.0667 125.456 40.2173 125.395 40.3905C125.341 40.547 125.26 40.6751 125.216 40.6751C125.135 40.6751 124.969 40.9412 124.701 41.5034C124.621 41.6727 124.513 41.8111 124.462 41.8111C124.412 41.8111 124.305 41.9496 124.224 42.1188C123.975 42.6448 123.819 42.8813 123.664 42.9678C123.583 43.0137 123.515 43.0963 123.515 43.1515C123.515 43.2561 123.345 43.4608 122.711 44.1207C121.946 44.9157 121.635 45.3186 121.574 45.597C121.54 45.7536 121.476 45.8818 121.432 45.8818C121.388 45.8818 121.304 46.0278 121.245 46.2062C121.186 46.3846 120.93 46.7447 120.677 47.0063C120.231 47.4661 120.081 47.6839 119.784 48.3034C119.707 48.4638 119.577 48.65 119.496 48.7174C119.415 48.7847 119.349 48.9202 119.349 49.0184C119.349 49.1167 119.263 49.27 119.159 49.3592C119.055 49.4484 118.97 49.5913 118.97 49.6768C118.97 49.7624 118.887 49.9373 118.786 50.0656C118.685 50.1939 118.574 50.4126 118.539 50.5517C118.504 50.6908 118.437 50.8046 118.389 50.8046C118.341 50.8046 118.262 50.9111 118.212 51.0413C118.163 51.1714 118.081 51.2779 118.03 51.2779C117.934 51.2779 117.753 51.5701 117.502 52.13C117.421 52.3122 117.291 52.5744 117.215 52.7126C117.138 52.8508 117.076 53.0714 117.076 53.2028C117.076 53.3343 117.004 53.5134 116.917 53.6009C116.829 53.6884 116.724 54.0028 116.684 54.2995C116.643 54.5962 116.545 54.9644 116.465 55.1175C116.283 55.4652 116.283 55.6095 116.461 55.9512C116.539 56.1003 116.602 56.3074 116.602 56.4113C116.602 56.5268 116.212 56.9796 115.598 57.577C114.197 58.9389 113.847 59.2301 113.611 59.2301C113.498 59.2301 113.355 59.2913 113.293 59.366C113.231 59.4408 113.045 59.5305 112.879 59.5655C112.713 59.6005 112.445 59.7098 112.282 59.8083C112.12 59.9068 111.901 59.9874 111.797 59.9874C111.692 59.9874 111.551 60.0538 111.484 60.1349C111.417 60.216 111.23 60.343 111.07 60.417C110.755 60.5623 110.531 60.6979 110.175 60.9578C110.05 61.0489 109.867 61.1234 109.768 61.1234C109.669 61.1234 109.565 61.1853 109.536 61.2609C109.507 61.3365 109.338 61.4463 109.16 61.5049C108.982 61.5635 108.837 61.6466 108.837 61.6895C108.837 61.7325 108.72 61.8161 108.577 61.8753C108.433 61.9345 108.146 62.0874 107.937 62.2152C107.729 62.3429 107.414 62.5148 107.237 62.5972C107.06 62.6795 106.855 62.8076 106.78 62.8818C106.706 62.9561 106.541 63.0168 106.412 63.0168C106.284 63.0168 106.155 63.0796 106.126 63.1562C106.096 63.2329 105.917 63.3243 105.726 63.3593C105.536 63.3943 105.279 63.502 105.155 63.5986C104.929 63.7738 104.481 63.841 104.481 63.6995C104.481 63.5421 104.866 62.8787 105.002 62.8029C105.08 62.7592 105.144 62.6849 105.144 62.6377C105.144 62.5256 105.6 62.0701 105.713 62.0701C105.761 62.0701 105.846 61.9849 105.901 61.8808C105.957 61.7767 106.066 61.6915 106.144 61.6915C106.222 61.6915 106.31 61.6292 106.339 61.5531C106.368 61.4769 106.468 61.3905 106.562 61.3609C106.655 61.3314 106.822 61.2339 106.933 61.1443C107.043 61.0547 107.23 60.9091 107.346 60.8208C108.793 59.7254 110.92 57.6062 110.92 57.2609C110.92 57.2096 110.984 57.1431 111.062 57.1132C111.143 57.0822 111.204 56.9411 111.204 56.7862C111.204 56.6363 111.29 56.4154 111.394 56.2954C111.498 56.1753 111.583 55.9999 111.583 55.9055C111.583 55.8112 111.668 55.6884 111.773 55.6327C111.877 55.577 111.962 55.4937 111.962 55.4477C111.962 55.4017 112.133 55.1868 112.341 54.97C112.549 54.7532 112.72 54.5463 112.72 54.5101C112.72 54.4739 112.889 54.275 113.095 54.0681C113.302 53.8612 113.472 53.6402 113.474 53.577C113.476 53.5137 113.563 53.4164 113.667 53.3606C113.771 53.3049 113.856 53.2143 113.856 53.1593C113.856 53.1043 113.943 52.946 114.049 52.8076C114.841 51.7731 114.993 51.5457 115.051 51.309C115.087 51.1618 115.162 51.0118 115.217 50.9758C115.272 50.9398 115.334 50.6185 115.354 50.2617C115.396 49.5151 115.269 49.3071 114.858 49.4466C114.612 49.5298 113.584 50.4254 112.566 51.4436C112.241 51.769 111.952 52.0353 111.925 52.0353C111.898 52.0353 111.646 52.2589 111.364 52.5323C111.083 52.8056 110.58 53.2624 110.247 53.5474C109.914 53.8323 109.608 54.1199 109.566 54.1864C109.525 54.2529 109.431 54.3073 109.358 54.3073C109.285 54.3073 109.184 54.3815 109.133 54.4722C109.051 54.6187 108.86 54.6376 107.427 54.6412C105.913 54.645 105.796 54.6582 105.53 54.8549C105.374 54.9703 105.198 55.0647 105.139 55.0647C105.08 55.0647 104.923 55.1499 104.791 55.254C104.658 55.3582 104.494 55.4433 104.425 55.4433C104.357 55.4433 104.267 55.4981 104.225 55.5651C104.125 55.7262 102.895 56.5554 102.161 56.9572C102.056 57.0142 101.865 57.1223 101.734 57.1974C101.604 57.2725 101.369 57.3346 101.211 57.3353C101.053 57.3362 100.83 57.4028 100.715 57.4836C100.599 57.5643 100.263 57.6698 99.9666 57.718C99.6705 57.7662 99.3985 57.8538 99.362 57.9128C99.3255 57.9718 99.088 58.0421 98.8342 58.0691C98.5803 58.0961 98.3087 58.1696 98.2306 58.2325C98.1525 58.2954 97.9607 58.3993 97.8044 58.4634C97.6482 58.5275 97.3286 58.8146 97.0942 59.1015C96.8598 59.3884 96.4017 59.9022 96.0761 60.2434C95.7506 60.5846 95.4843 60.8824 95.4843 60.9052C95.4843 60.928 95.2073 61.2195 94.8687 61.5529C94.2801 62.1327 94.2532 62.1478 94.2532 61.898C94.2532 61.7544 94.3384 61.4697 94.4426 61.2654C94.5467 61.0612 94.632 60.8378 94.632 60.7691C94.632 60.7004 94.6959 60.6196 94.774 60.5897C94.8521 60.5597 94.9161 60.4824 94.9161 60.418C94.9161 60.3535 95.0013 60.2237 95.1055 60.1294C95.2096 60.0352 95.2949 59.8647 95.2949 59.7506C95.2949 59.6364 95.3801 59.4448 95.4843 59.3248C95.8071 58.9527 95.6928 58.4512 95.0704 57.5087C94.8601 57.1904 94.9889 56.8903 95.3686 56.8135C95.5104 56.7849 95.7839 56.6779 95.9765 56.5758C96.1692 56.4736 96.409 56.39 96.5095 56.39C96.61 56.39 96.743 56.3289 96.805 56.2541C96.8671 56.1794 97.0534 56.0896 97.2191 56.0546C97.3848 56.0196 97.6532 55.9103 97.8156 55.8118C97.978 55.7133 98.1965 55.6327 98.3012 55.6327C98.4059 55.6327 98.5406 55.5735 98.6006 55.5012C98.6607 55.4289 98.9003 55.3218 99.1331 55.2632C99.3659 55.2046 99.5564 55.118 99.5564 55.0708C99.5564 55.0237 99.6949 54.9558 99.8642 54.92C100.033 54.8842 100.305 54.7743 100.467 54.6758C100.63 54.5773 100.826 54.4967 100.903 54.4967C100.98 54.4967 101.141 54.4115 101.261 54.3073C101.381 54.2032 101.552 54.118 101.64 54.118C101.728 54.118 101.898 54.0328 102.019 53.9287C102.139 53.8245 102.309 53.7393 102.397 53.7393C102.486 53.7393 102.656 53.6541 102.776 53.55C102.896 53.4458 103.067 53.3606 103.155 53.3606C103.243 53.3606 103.392 53.2754 103.486 53.1713C103.581 53.0672 103.701 52.982 103.754 52.982C103.806 52.982 103.917 52.917 103.999 52.8376C104.209 52.6358 104.85 52.2246 104.955 52.2246C105.003 52.2246 105.088 52.1394 105.144 52.0353C105.199 51.9311 105.307 51.846 105.384 51.846C105.46 51.846 105.522 51.8013 105.522 51.7468C105.522 51.6495 106.415 50.7099 106.508 50.7099C106.632 50.7099 107.449 50.091 107.813 49.7217C108.424 49.1011 108.474 49.0248 108.528 48.6201C108.569 48.3176 108.529 48.1764 108.316 47.8694C108.021 47.4437 107.803 47.3967 107.442 47.6805C107.31 47.7847 107.124 47.8699 107.03 47.8699C106.935 47.8699 106.824 47.9297 106.782 48.0029C106.74 48.076 106.642 48.1494 106.564 48.1659C106.39 48.2026 105.951 47.8014 105.865 47.5274C105.791 47.2929 105.147 46.6045 104.667 46.2469C104.43 46.0711 104.193 45.9898 103.862 45.9714C103.017 45.9247 102.508 45.9737 102.366 46.1159C102.289 46.1926 102.049 46.2837 101.832 46.3183C101.615 46.353 101.378 46.441 101.305 46.5139C101.085 46.7344 100.325 46.9227 100.061 46.8223C99.9329 46.7737 99.6883 46.7339 99.5173 46.7339C99.3425 46.7339 99.111 46.6511 98.9882 46.5445C98.8681 46.4404 98.7154 46.3552 98.649 46.3552C98.5826 46.3552 98.4539 46.2809 98.3631 46.1901C98.1798 46.0069 97.9492 45.8613 97.5128 45.6532C97.3524 45.5767 97.1683 45.4505 97.1038 45.3727C97.0392 45.295 96.8615 45.2039 96.7088 45.1704C96.5562 45.1369 96.4313 45.0692 96.4313 45.02C96.4313 44.9707 96.3247 44.89 96.1945 44.8405C96.0643 44.791 95.9578 44.712 95.9578 44.665C95.9578 44.6179 95.8193 44.5235 95.65 44.4552C95.4807 44.3868 95.3081 44.2752 95.2665 44.207C95.2248 44.1389 95.1432 44.0831 95.085 44.0831C95.0269 44.0831 94.9118 44.0177 94.8293 43.9376C94.7468 43.8576 94.4662 43.6562 94.2058 43.4902C93.9454 43.3242 93.6761 43.1341 93.6073 43.0679C93.5386 43.0016 93.3788 42.9214 93.2522 42.8897C93.1256 42.8579 93.0221 42.7945 93.0221 42.7488C93.0221 42.7031 92.8836 42.5997 92.7143 42.519C92.1922 42.2702 91.8454 42.0684 91.7139 41.937C91.6447 41.8677 91.5267 41.8111 91.4518 41.8111C91.3769 41.8111 91.2426 41.7259 91.1534 41.6218C91.0642 41.5176 90.9213 41.4324 90.8357 41.4324C90.7501 41.4324 90.5718 41.3472 90.4393 41.2431C90.3069 41.139 90.1694 41.0538 90.1337 41.0538C90.0981 41.0538 89.9605 40.9686 89.8281 40.8644C89.6957 40.7603 89.5252 40.6751 89.4493 40.6751C89.3734 40.6751 89.2029 40.5899 89.0705 40.4857C88.9381 40.3816 88.7676 40.2964 88.6917 40.2964C88.6158 40.2964 88.4453 40.2112 88.3129 40.1071C88.1805 40.0029 87.9984 39.9177 87.9083 39.9177C87.8181 39.9177 87.6361 39.8325 87.5036 39.7284C87.3712 39.6243 87.2007 39.5391 87.1248 39.5391C87.0489 39.5391 86.8852 39.4594 86.761 39.3621C86.6367 39.2647 86.3996 39.1555 86.2339 39.1193C86.0682 39.0831 85.8819 38.9924 85.8198 38.9176C85.7578 38.8429 85.6114 38.7817 85.4946 38.7817C85.3778 38.7817 85.1806 38.7031 85.0564 38.6071C84.9322 38.511 84.6842 38.404 84.5053 38.3693C84.3264 38.3345 84.1133 38.2486 84.0318 38.1782C83.9502 38.1079 83.7425 38.0238 83.5702 37.9913C83.3979 37.9588 83.1925 37.8678 83.1137 37.789C83.0348 37.7102 82.8734 37.6457 82.7549 37.6457C82.6363 37.6457 82.4411 37.5605 82.321 37.4564C82.2009 37.3522 82.0461 37.267 81.977 37.267C81.908 37.267 81.4062 36.8091 80.862 36.2493C79.4535 34.8007 78.0362 33.3756 77.8701 33.2408C77.7919 33.1775 77.6215 33.0932 77.4913 33.0535C77.3611 33.0139 77.1705 32.9233 77.0677 32.8522C76.8266 32.6853 76.0723 32.6855 75.8314 32.8522C75.7006 32.9429 75.1993 32.9949 74.1579 33.026C73.2265 33.0537 72.6213 33.1116 72.5379 33.1808C72.4594 33.2459 72.3785 33.5718 72.3412 33.9733C72.3063 34.3484 72.2275 34.6864 72.1661 34.7243C72.0942 34.7687 72.03 35.277 71.9862 36.1484C71.9488 36.8937 71.9074 37.6977 71.8943 37.9351C71.8812 38.1724 71.9018 38.4174 71.9401 38.4794C72.0504 38.6577 72.5089 38.6107 72.6869 38.4028C72.7761 38.2987 72.9069 38.2135 72.9774 38.2135C73.048 38.2135 73.1828 38.1283 73.2771 38.0241C73.3714 37.92 73.5072 37.8348 73.5789 37.8348C73.6506 37.8348 73.7331 37.7725 73.7623 37.6964C73.7916 37.6203 73.9074 37.5293 74.0198 37.4942C74.2057 37.4361 74.72 36.9429 75.4041 36.1668L75.6644 35.8716L75.9149 36.1854C76.0527 36.3581 76.1655 36.5625 76.1655 36.6396C76.1655 36.7168 76.2198 36.8362 76.2861 36.905C76.3525 36.9738 76.5431 37.2431 76.7098 37.5035C76.8764 37.7638 77.0467 38.0194 77.0881 38.0715C77.1295 38.1235 77.2995 38.3791 77.4658 38.6395C77.6322 38.8998 77.8338 39.1803 77.9139 39.2628C77.994 39.3452 78.0595 39.4482 78.0595 39.4915C78.0595 39.5348 78.1244 39.6378 78.2038 39.7202C78.2833 39.8027 78.4586 40.039 78.5935 40.2453C78.7995 40.5604 78.8302 40.6922 78.7855 41.0694C78.7562 41.3163 78.6712 41.6161 78.5965 41.7356C78.5218 41.8551 78.4358 42.242 78.4054 42.5954C78.3749 42.9488 78.2911 43.2968 78.2191 43.3688C78.1456 43.4423 78.063 43.8001 78.0307 44.1854C77.9991 44.5626 77.9235 44.9019 77.8628 44.9394C77.802 44.9769 77.7214 45.3237 77.6836 45.71C77.6457 46.0963 77.5492 46.5166 77.469 46.644C77.3888 46.7714 77.3023 47.1592 77.2768 47.5057C77.2504 47.8641 77.1642 48.2304 77.0767 48.3551C76.9922 48.4758 76.9231 48.686 76.9231 48.8224C76.9231 49.089 76.8062 49.2479 75.9287 50.1738C74.8245 51.339 74.4341 51.8016 74.3116 52.0899C74.2434 52.2503 74.1241 52.4343 74.0463 52.4988C73.9685 52.5633 73.8782 52.7374 73.8456 52.8857C73.813 53.034 73.7315 53.1763 73.6643 53.2021C73.5972 53.2278 73.5168 53.4638 73.4857 53.7264C73.4546 53.9891 73.368 54.3017 73.2934 54.4212C73.2187 54.5407 73.1332 54.8628 73.1033 55.137C73.0734 55.4112 72.9831 55.7295 72.9026 55.8444C72.8221 55.9593 72.7563 56.1451 72.7563 56.2573C72.7563 56.3695 72.6899 56.5164 72.6087 56.5837C72.5276 56.651 72.4019 56.8479 72.3295 57.0213C72.257 57.1946 72.1529 57.3365 72.0982 57.3365C72.0435 57.3365 71.9987 57.3798 71.9987 57.4327C71.9987 57.5255 69.2071 60.3659 69.1159 60.3659C69.0309 60.3659 67.4531 61.9835 67.4531 62.0706C67.4531 62.1186 67.3678 62.2035 67.2637 62.2592C67.1595 62.315 67.0743 62.4164 67.0743 62.4846C67.0743 62.5528 66.989 62.6857 66.8849 62.7799C66.7807 62.8742 66.6955 63 66.6955 63.0595C66.6955 63.1191 66.525 63.3451 66.3167 63.5619C66.1083 63.7786 65.9379 63.9755 65.9379 63.9995C65.9379 64.0804 65.0713 64.91 64.9867 64.91C64.9406 64.91 64.8572 64.9952 64.8015 65.0993C64.7457 65.2034 64.6377 65.2886 64.5614 65.2886C64.4851 65.2886 64.4227 65.3321 64.4227 65.3853C64.4227 65.4385 64.3055 65.5319 64.1622 65.593C64.019 65.654 63.827 65.7664 63.7354 65.8429C63.5334 66.0116 63.2463 66.1819 62.8364 66.3761C62.6672 66.4562 62.5287 66.5606 62.5287 66.6079C62.5287 66.6552 62.3833 66.7419 62.2056 66.8006C62.0279 66.8592 61.8588 66.969 61.8298 67.0446C61.8008 67.1202 61.7291 67.182 61.6706 67.182C61.6121 67.182 61.4558 67.2672 61.3234 67.3713C61.191 67.4755 61.0046 67.5607 60.9093 67.5607C60.814 67.5607 60.6904 67.6459 60.6347 67.75C60.5789 67.8541 60.4492 67.9393 60.3463 67.9393C60.2435 67.9393 60.0863 68.0245 59.9971 68.1287C59.908 68.2328 59.8001 68.318 59.7575 68.318C59.5917 68.318 58.3107 69.3053 57.8173 69.8133C57.5241 70.1153 57.5097 70.12 57.5126 69.9106Z" fill="#555E58"/>
</svg>
